<?xml version="1.0" standalone="no"?>
<!DOCTYPE svg PUBLIC "-//W3C//DTD SVG 20010904//EN"
 "http://www.w3.org/TR/2001/REC-SVG-20010904/DTD/svg10.dtd">
<svg version="1.0" xmlns="http://www.w3.org/2000/svg"
 width="1024.000000pt" height="597.000000pt" viewBox="0 0 1024.000000 597.000000"
 preserveAspectRatio="xMidYMid meet">

<g transform="translate(0.000000,597.000000) scale(0.100000,-0.100000)"
fill="#000000" stroke="none">
<path d="M1431 5450 c-41 -22 -76 -42 -79 -45 -2 -2 -2 -16 2 -30 4 -16 13
-25 26 -25 11 0 20 -4 20 -10 0 -12 107 -13 165 -1 22 4 51 5 63 1 22 -5 21
-7 -17 -29 -34 -18 -40 -25 -30 -37 6 -8 20 -14 30 -14 11 0 27 -9 37 -21 22
-27 65 -49 95 -49 13 0 38 -7 56 -16 19 -9 42 -13 56 -10 22 6 25 3 25 -19 0
-42 38 -58 125 -53 l75 3 0 -31 c0 -17 8 -38 18 -47 28 -25 88 -47 129 -47 73
0 114 -11 109 -29 -11 -36 66 -91 130 -91 36 0 117 11 182 25 15 4 22 1 22
-10 0 -8 -6 -15 -14 -15 -8 0 -27 -11 -43 -24 -24 -20 -25 -26 -14 -40 20 -23
65 -20 107 9 37 25 107 35 118 16 3 -4 -15 -21 -39 -37 -52 -32 -58 -59 -17
-77 15 -6 30 -15 33 -20 4 -5 17 -7 30 -5 20 2 24 8 22 34 -2 23 2 34 15 38
48 17 97 53 97 71 0 11 -7 21 -15 22 -8 1 -36 5 -62 8 -39 5 -50 11 -60 33
-11 23 -20 27 -58 30 -57 3 -94 11 -87 19 13 12 -24 61 -55 74 -37 16 -150 18
-250 5 -48 -6 -86 -5 -128 4 -55 12 -60 15 -60 39 0 21 7 29 33 39 57 20 105
15 132 -14 29 -32 60 -29 60 6 0 44 -41 54 -224 60 -130 4 -161 8 -150 17 8 7
37 17 64 23 26 6 52 13 57 16 13 8 -18 40 -54 55 -28 11 -32 10 -47 -10 -14
-19 -32 -24 -96 -32 -88 -9 -115 0 -59 20 40 14 74 44 74 64 0 8 -16 22 -37
33 -47 25 -44 38 12 42 27 2 45 8 45 15 0 11 -104 68 -122 67 -5 0 -8 -8 -8
-17 0 -22 -87 -53 -148 -53 -41 0 -42 1 -42 34 0 29 -5 36 -37 52 -21 9 -60
19 -88 21 -43 3 -60 -2 -124 -37z m167 -17 c-2 -10 -12 -19 -23 -21 -11 -2
-34 -11 -52 -19 -36 -16 -74 -14 -81 5 -5 17 74 52 121 52 31 0 38 -3 35 -17z
m271 -122 c19 -12 -84 -61 -127 -61 -36 0 -40 10 -14 33 36 33 110 47 141 28z
m726 -355 c0 -13 -13 -22 -45 -33 -25 -8 -49 -18 -53 -23 -10 -9 -67 17 -67
31 0 18 84 49 125 47 31 -2 40 -7 40 -22z"/>
<path d="M2157 5286 c-17 -13 -16 -15 10 -33 53 -38 123 -39 123 -2 0 35 -99
62 -133 35z"/>
<path d="M1592 5011 c-72 -47 -80 -61 -55 -90 22 -26 54 -27 76 -1 9 11 28 20
42 20 20 0 25 -5 25 -24 0 -18 -16 -38 -56 -71 -31 -25 -67 -48 -80 -51 -13
-3 -24 -9 -24 -14 0 -4 -18 -15 -40 -25 -22 -10 -40 -21 -40 -25 0 -5 -12 -11
-27 -15 -14 -3 -50 -31 -80 -60 -41 -42 -53 -62 -53 -86 0 -22 5 -32 20 -36
11 -3 20 -9 20 -14 0 -5 7 -9 14 -9 8 0 34 -13 58 -29 24 -15 59 -31 78 -35
19 -3 43 -15 55 -25 20 -18 29 -23 130 -74 84 -42 94 -43 124 -10 15 17 25 35
23 41 -1 5 2 13 7 17 26 15 10 45 -39 71 -53 29 -63 44 -30 44 11 0 20 4 20 9
0 5 15 16 33 26 92 48 124 71 179 128 36 38 88 134 88 162 0 8 -13 29 -29 47
-27 30 -34 33 -89 33 -41 0 -66 -6 -79 -16 -10 -9 -26 -19 -35 -22 -10 -4 -18
-11 -18 -17 0 -5 -6 -10 -14 -10 -19 0 -28 -28 -16 -50 15 -29 57 -34 94 -10
42 25 56 25 56 -1 0 -25 -62 -87 -110 -111 -19 -10 -57 -31 -85 -47 -27 -17
-63 -37 -80 -47 -16 -9 -45 -30 -64 -45 -40 -33 -45 -32 -31 5 9 25 7 28 -35
48 -25 12 -45 25 -45 28 0 7 47 50 55 50 2 0 32 17 67 37 82 48 127 91 157
150 12 27 27 56 32 65 31 59 -7 113 -86 123 -47 6 -54 4 -113 -34z"/>
<path d="M1173 5028 c-16 -23 -39 -102 -81 -281 -14 -59 -14 -70 -1 -78 25
-16 39 -10 82 35 44 46 100 113 105 127 2 4 26 31 54 58 43 43 49 53 38 66
-19 23 -46 10 -107 -51 -29 -30 -58 -54 -64 -54 -14 0 -4 62 16 100 13 24 18
52 16 78 0 6 -12 12 -25 12 -13 0 -28 -6 -33 -12z"/>
<path d="M922 4858 c-7 -7 -12 -16 -12 -21 0 -5 7 -1 16 8 9 9 14 18 12 20 -2
3 -10 -1 -16 -7z"/>
<path d="M3060 4803 c-29 -15 -36 -24 -38 -54 -7 -79 88 -136 209 -126 92 8
125 26 127 70 2 44 -11 59 -76 92 -70 37 -171 45 -222 18z m90 -31 c0 -8 -52
-42 -64 -42 -8 0 -8 35 1 43 9 10 63 9 63 -1z m55 -32 c3 -6 -1 -7 -9 -4 -18
7 -21 14 -7 14 6 0 13 -4 16 -10z m86 0 c22 -12 25 -42 6 -58 -7 -6 -31 -14
-54 -18 -32 -5 -41 -3 -46 10 -4 11 -1 19 11 22 68 22 73 26 55 40 -22 16 -1
19 28 4z m-141 -51 c0 -24 -23 -21 -28 4 -2 10 3 17 12 17 10 0 16 -9 16 -21z"/>
<path d="M2166 4781 c-3 -4 -18 -11 -34 -14 -47 -10 -212 -182 -212 -221 0 -9
-4 -16 -10 -16 -5 0 -10 -7 -10 -15 0 -9 -11 -33 -25 -55 -14 -21 -22 -46 -19
-54 3 -9 0 -18 -7 -21 -20 -7 -12 -104 10 -133 22 -30 87 -40 127 -19 37 19
124 105 124 122 0 7 4 15 8 17 9 3 102 133 102 141 0 3 15 30 34 62 19 31 38
70 41 85 10 45 -11 105 -40 118 -30 14 -82 16 -89 3z m-2 -154 c-44 -76 -61
-101 -106 -157 -25 -33 -49 -68 -53 -79 -6 -20 -41 -35 -50 -21 -3 4 3 18 13
31 10 13 25 40 32 59 8 19 24 49 37 66 13 17 23 35 23 40 0 6 16 27 35 47 19
20 35 41 35 46 0 13 33 20 44 9 6 -4 2 -21 -10 -41z"/>
<path d="M2445 4655 c-5 -2 -22 -6 -37 -9 -15 -3 -33 -12 -40 -19 -7 -7 -38
-35 -68 -62 -30 -27 -68 -67 -84 -89 -16 -23 -36 -47 -43 -54 -7 -7 -13 -20
-13 -27 0 -8 -6 -18 -13 -22 -18 -11 -50 -119 -50 -168 1 -60 18 -94 57 -110
57 -24 97 -6 174 79 29 32 72 94 72 105 0 4 9 16 21 27 12 10 30 37 42 59 11
22 25 44 32 50 17 14 65 138 65 167 0 41 -73 88 -115 73z m-36 -172 c-52 -98
-71 -127 -106 -161 -18 -18 -33 -37 -33 -41 0 -5 -7 -11 -15 -15 -8 -3 -15
-12 -15 -21 0 -17 -16 -20 -25 -5 -3 6 1 13 9 16 9 3 16 16 16 28 1 11 12 39
25 61 14 22 34 57 46 79 11 21 29 41 40 43 10 3 19 11 19 17 0 22 31 56 50 56
18 0 17 -5 -11 -57z"/>
<path d="M954 4562 c-19 -7 -36 -19 -72 -53 -9 -9 -32 -24 -49 -33 -33 -16
-55 -49 -66 -97 -6 -22 -1 -28 37 -46 38 -19 42 -24 39 -50 -6 -41 17 -57 78
-54 27 1 49 -1 49 -6 0 -4 10 -21 23 -36 17 -21 33 -29 67 -32 53 -5 60 -2 82
48 20 41 38 50 31 13 -4 -17 3 -29 23 -45 26 -20 27 -23 15 -63 -15 -48 -7
-58 47 -58 22 0 32 5 32 15 0 8 7 15 15 15 8 0 15 5 15 11 0 7 10 9 24 5 17
-4 28 -1 34 10 14 25 25 1 27 -60 2 -28 3 -57 4 -64 0 -7 15 -26 31 -41 26
-23 37 -27 77 -24 55 4 73 17 73 49 0 13 5 24 11 24 6 0 9 -9 6 -19 -10 -40
13 -108 48 -140 35 -31 65 -41 65 -20 0 7 10 9 24 7 31 -6 67 39 72 91 3 20 6
48 9 63 2 15 0 30 -5 33 -18 11 -10 23 15 23 32 0 31 -1 39 43 6 35 5 38 -36
62 -76 44 -86 44 -124 1 -19 -21 -34 -48 -34 -62 0 -21 -2 -22 -15 -12 -8 7
-15 11 -16 9 -14 -66 -5 -83 52 -101 42 -12 47 -19 25 -37 -12 -10 -17 -8 -26
8 -6 12 -15 21 -21 21 -5 0 -24 10 -42 22 -18 13 -34 24 -36 25 -2 1 2 10 10
19 8 9 12 27 11 39 -2 13 3 25 12 28 12 5 16 21 16 60 0 46 -4 57 -28 79 -32
28 -79 41 -103 27 -24 -12 -59 -72 -59 -98 0 -18 -4 -21 -21 -16 -18 6 -20 4
-15 -13 4 -11 2 -23 -4 -27 -5 -3 -10 1 -10 9 0 9 -5 16 -10 16 -6 0 -8 10 -4
24 4 17 -1 28 -18 42 -19 16 -23 29 -23 74 0 45 -3 55 -19 58 -21 4 -70 -43
-61 -58 3 -6 -1 -10 -9 -10 -8 0 -18 5 -22 11 -3 6 -15 9 -25 6 -11 -3 -19 -1
-19 5 0 5 -5 6 -11 2 -7 -4 -9 0 -5 12 12 41 16 115 6 133 -29 55 -94 69 -136
30 -17 -16 -27 -18 -39 -11 -12 6 -14 11 -6 16 15 9 14 79 -1 94 -13 13 -22
14 -54 4z m56 -151 c0 -12 -20 -25 -27 -18 -7 7 6 27 18 27 5 0 9 -4 9 -9z
m61 -114 c-8 -8 -11 -7 -11 4 0 20 13 34 18 19 3 -7 -1 -17 -7 -23z m449 -241
c0 -3 -4 -8 -10 -11 -5 -3 -10 -1 -10 4 0 6 5 11 10 11 6 0 10 -2 10 -4z"/>
<path d="M720 4438 c0 -18 7 -41 15 -51 12 -17 14 -15 23 25 10 50 8 58 -19
58 -15 0 -19 -7 -19 -32z"/>
<path d="M4033 4310 c6 -27 4 -30 -31 -40 -20 -5 -43 -10 -50 -10 -7 0 -41
-10 -75 -22 -34 -12 -84 -24 -112 -27 -66 -8 -65 -25 5 -72 30 -21 60 -42 66
-48 13 -11 39 5 46 28 4 14 74 42 83 33 3 -3 3 -40 0 -81 -8 -96 -1 -106 66
-106 51 0 53 -1 61 -32 18 -68 83 -80 211 -36 55 18 81 23 89 15 7 -7 1 -15
-21 -26 -46 -24 -37 -44 17 -37 8 1 24 -9 37 -23 13 -14 36 -28 52 -31 15 -4
51 -13 78 -21 28 -8 64 -16 80 -17 24 -2 31 -8 33 -27 5 -36 12 -40 93 -54 69
-12 74 -14 71 -37 -1 -13 -5 -48 -8 -77 -7 -53 11 -142 27 -142 20 0 7 -26
-21 -45 -16 -11 -30 -25 -30 -31 0 -17 -55 -64 -81 -69 -13 -3 -29 -12 -36
-21 -6 -9 -18 -14 -27 -12 -12 2 -7 16 23 63 62 97 67 165 11 165 -16 0 -35
-7 -44 -15 -8 -8 -19 -15 -24 -15 -19 0 -42 -38 -42 -69 0 -36 18 -48 50 -31
12 6 24 9 27 6 15 -14 -51 -116 -75 -116 -6 0 -15 -6 -19 -13 -4 -7 -28 -26
-53 -42 -25 -16 -68 -59 -95 -95 -28 -36 -53 -66 -57 -68 -21 -10 -5 -49 31
-74 47 -34 54 -34 74 -5 l16 22 0 -22 c1 -13 -5 -44 -11 -70 -10 -34 -20 -49
-38 -56 -30 -12 -65 -79 -65 -126 0 -29 -4 -35 -29 -42 -28 -8 -28 -7 -21 27
3 20 15 50 26 67 25 42 25 83 0 90 -10 2 -23 2 -28 -2 -21 -15 -53 -65 -53
-84 0 -12 -11 -33 -25 -47 -31 -32 -44 -110 -21 -129 22 -19 49 -9 56 19 11
46 57 29 74 -27 6 -19 2 -25 -18 -33 -16 -6 -26 -17 -26 -29 0 -16 -9 -20 -62
-25 -223 -19 -279 -26 -330 -39 -62 -17 -98 -33 -98 -45 0 -4 -14 -16 -30 -26
-17 -9 -42 -40 -56 -67 -13 -27 -34 -59 -45 -70 -15 -15 -18 -24 -10 -32 6 -6
11 -38 11 -70 0 -69 16 -133 40 -162 9 -11 26 -36 38 -56 37 -61 129 -134 184
-144 67 -13 149 69 238 237 33 62 50 72 50 30 0 -42 44 -92 79 -92 50 0 95 22
168 81 40 32 83 61 97 65 31 7 76 58 76 85 0 23 -13 25 -30 4 -38 -46 -5 31
42 97 l19 28 -33 20 c-35 21 -23 26 29 11 44 -13 34 9 -15 31 -20 9 -54 24
-75 34 -21 9 -41 14 -44 10 -3 -3 -1 -6 5 -6 7 0 12 -6 12 -13 0 -9 -10 -12
-30 -9 -36 5 -46 18 -30 37 10 11 5 18 -22 35 -18 11 -38 20 -45 20 -19 0 -93
41 -93 51 0 5 12 9 27 9 31 0 113 -29 113 -40 0 -4 17 -11 37 -15 20 -4 48
-15 61 -26 14 -10 33 -19 43 -19 11 0 19 -4 19 -9 0 -5 17 -11 39 -15 21 -3
44 -12 50 -20 6 -8 27 -17 45 -20 19 -4 39 -13 46 -21 7 -8 20 -15 29 -15 9 0
27 -9 41 -20 14 -11 33 -20 42 -20 9 0 20 -4 23 -10 3 -5 13 -10 21 -10 8 0
39 -11 67 -24 150 -70 207 -92 207 -82 0 5 -123 66 -135 66 -11 0 -200 89
-245 115 -14 8 -33 15 -42 15 -9 0 -20 4 -23 10 -3 6 -17 10 -30 10 -30 0 -38
22 -20 57 8 15 15 33 15 39 0 10 60 95 100 141 5 7 10 19 10 27 0 9 13 30 30
48 l30 33 -7 -35 c-3 -19 -12 -53 -20 -74 -22 -65 -6 -53 31 24 20 40 54 97
76 125 23 30 44 69 47 89 3 20 7 36 9 36 1 0 14 -4 28 -10 51 -19 34 9 -22 35
-31 15 -64 31 -72 36 -8 5 -43 23 -77 40 -35 17 -63 35 -63 40 0 19 31 21 73
6 93 -33 118 -44 129 -55 7 -7 21 -12 33 -11 19 0 18 1 -3 9 l-23 10 22 29
c16 22 22 46 24 104 2 41 5 79 9 85 3 5 8 39 11 76 7 85 -15 138 -74 185 -49
39 -82 38 -137 -4 -40 -30 -42 -30 -65 -3 -26 29 -25 105 0 136 24 28 48 28
56 1 10 -30 25 -6 25 39 0 36 -37 79 -74 87 -12 2 -34 7 -50 10 l-29 6 24 17
c13 9 42 19 64 22 52 7 54 35 6 67 -40 27 -51 29 -51 8 0 -8 -9 -19 -21 -26
-31 -16 -144 -30 -171 -20 -21 8 -20 9 14 20 85 28 102 82 36 114 -56 26 -50
38 26 49 39 6 26 26 -26 43 -29 10 -58 20 -65 22 -6 3 -13 -5 -15 -17 -7 -46
-198 -98 -194 -53 3 42 -118 58 -291 38 -72 -8 -72 -8 -78 18 -12 48 -6 51 94
48 94 -3 121 5 121 37 0 21 -204 222 -225 222 -14 0 -16 -6 -12 -30z m105
-116 c12 -8 22 -24 22 -35 0 -15 -7 -19 -35 -19 -63 0 -123 47 -82 63 26 11
73 6 95 -9z m186 -210 c24 -9 1 -27 -67 -52 -68 -26 -67 -26 -67 -8 0 33 94
75 134 60z m316 -76 c0 -37 -147 -87 -165 -58 -9 15 37 57 70 63 47 10 95 7
95 -5z m30 -721 c0 -7 -9 -18 -19 -24 -10 -7 -36 -44 -57 -82 -32 -59 -42 -70
-59 -66 -11 3 -14 2 -7 -1 17 -8 15 -25 -3 -18 -8 4 -15 1 -15 -5 0 -6 -4 -11
-9 -11 -5 0 -12 18 -16 41 -7 38 -4 43 34 81 43 43 62 45 43 4 -6 -13 -8 -27
-5 -30 7 -7 47 48 67 92 15 31 46 45 46 19z m-60 -11 c0 -2 -7 -7 -16 -10 -8
-3 -12 -2 -9 4 6 10 25 14 25 6z m116 -51 c13 -4 14 -8 4 -20 -6 -7 -18 -12
-26 -9 -47 14 -47 14 -34 29 6 7 18 12 26 9 8 -2 21 -6 30 -9z m391 -7 c-3 -8
-6 -5 -6 6 -1 11 2 17 5 13 3 -3 4 -12 1 -19z m-858 -741 c14 -17 -14 -107
-34 -107 -7 0 -21 -12 -31 -27 -25 -39 -101 -105 -138 -121 -36 -16 -104 -10
-149 13 -47 23 -67 20 -67 -12 -1 -29 -25 -71 -36 -61 -3 4 -2 28 2 55 6 42
14 55 67 105 53 51 70 61 166 92 58 20 124 45 146 56 46 24 59 25 74 7z m-39
-241 c0 -19 -4 -38 -10 -41 -5 -3 -10 -15 -10 -26 0 -10 -3 -19 -8 -19 -4 0
-15 -17 -25 -37 -39 -83 -97 -150 -160 -183 l-44 -23 -43 34 c-23 19 -54 54
-68 79 -14 25 -29 47 -32 50 -14 10 -19 69 -8 76 7 4 14 2 16 -4 5 -17 57 -38
114 -46 62 -9 89 5 185 99 42 41 80 75 85 75 4 0 8 -15 8 -34z"/>
<path d="M2560 4300 c0 -5 -17 -27 -37 -49 -21 -21 -49 -57 -63 -79 -14 -23
-41 -49 -60 -59 -37 -20 -52 -59 -28 -74 21 -14 58 -10 64 6 12 29 101 7 130
-33 18 -24 47 -10 57 28 4 19 19 45 33 58 13 13 24 26 24 31 0 4 12 21 26 36
34 37 38 89 8 93 -15 2 -36 -12 -70 -48 -27 -29 -52 -60 -56 -71 -8 -20 -33
-26 -42 -10 -3 5 2 19 13 32 37 49 73 120 67 134 -6 16 -66 21 -66 5z"/>
<path d="M802 4270 c0 -14 2 -19 5 -12 2 6 2 18 0 25 -3 6 -5 1 -5 -13z"/>
<path d="M2804 4238 c-22 -29 -52 -73 -67 -98 -42 -69 -51 -83 -64 -98 -19
-20 -16 -40 9 -53 20 -11 26 -8 54 25 29 34 35 36 72 30 35 -5 42 -3 52 17 11
20 10 25 -14 44 -32 25 -32 28 -4 68 13 18 23 33 23 34 0 1 20 -3 44 -9 35 -9
45 -8 58 5 8 8 12 21 8 27 -7 11 -107 60 -123 60 -4 0 -25 -24 -48 -52z"/>
<path d="M636 4183 c-31 -137 -38 -218 -33 -353 5 -135 17 -191 56 -275 25
-53 58 -80 166 -136 49 -25 121 -63 159 -83 69 -37 102 -44 72 -14 -9 9 -16
21 -16 27 0 6 -9 15 -20 21 -11 6 -20 17 -20 25 0 8 -4 15 -8 15 -5 0 -18 18
-29 39 -17 32 -18 41 -8 45 8 3 17 -4 21 -17 20 -65 205 -247 306 -300 13 -6
37 -21 53 -32 49 -33 69 -45 85 -51 8 -3 35 -15 60 -26 109 -49 184 -55 263
-20 l47 21 0 -30 c0 -22 -5 -29 -20 -29 -11 0 -20 -7 -20 -15 0 -10 -10 -15
-28 -15 -16 0 -31 -3 -35 -6 -8 -8 15 -44 28 -44 6 0 28 -10 50 -21 99 -53
183 -98 218 -118 21 -11 44 -21 51 -21 8 0 16 -3 18 -7 3 -9 31 -25 140 -82
43 -22 96 -52 118 -66 22 -14 42 -25 44 -25 3 0 62 -31 132 -70 69 -38 132
-70 139 -70 7 0 15 -4 17 -9 2 -4 55 -35 118 -67 63 -32 117 -62 118 -66 2 -5
11 -8 21 -8 9 0 21 -4 27 -8 21 -20 145 -57 259 -79 33 -7 163 -70 183 -90 7
-7 16 -13 20 -13 9 0 62 -46 147 -128 39 -37 77 -71 86 -77 9 -5 45 -29 80
-52 35 -23 65 -40 67 -38 5 4 -14 39 -30 57 -7 8 -19 25 -27 38 -8 14 -28 46
-44 72 -62 99 -60 249 5 371 19 34 102 98 168 128 49 22 55 26 58 41 2 9 -23
27 -65 50 -147 77 -180 99 -239 158 -33 34 -72 68 -85 75 -76 43 -192 96 -244
110 -114 32 -240 84 -255 104 -3 4 -39 23 -80 42 -41 18 -77 37 -80 41 -3 4
-17 12 -30 18 -14 6 -47 25 -75 41 -27 16 -58 32 -69 35 -10 4 -59 29 -110 55
-50 27 -144 74 -208 106 -64 32 -117 63 -117 69 -1 7 -22 18 -47 25 -25 8 -53
21 -62 29 -9 9 -39 27 -66 40 -27 14 -51 30 -53 37 -3 8 -14 11 -28 7 -15 -4
-24 0 -28 10 -4 9 -15 16 -26 16 -24 0 -36 16 -19 23 7 3 -4 6 -25 6 -24 1
-40 7 -43 16 -4 8 -16 15 -28 15 -11 0 -34 7 -50 15 -15 8 -32 15 -37 15 -13
0 -11 -57 1 -65 8 -5 7 -11 -1 -21 -16 -19 -4 -30 16 -14 9 7 15 8 15 2 0 -6
-5 -12 -12 -14 -8 -3 -8 -12 0 -33 6 -19 11 -23 11 -12 2 33 21 6 21 -29 0
-20 9 -47 21 -64 18 -23 21 -42 21 -104 -2 -151 -39 -131 -47 25 -5 88 -14
130 -16 78 -1 -18 -3 -16 -9 11 -26 110 -33 130 -42 130 -6 0 -7 11 -3 27 5
23 4 25 -9 14 -14 -12 -16 -10 -16 7 0 12 -11 33 -25 48 -14 15 -25 33 -25 41
0 7 -7 16 -15 19 -8 4 -15 15 -15 25 0 11 -7 19 -17 19 -21 1 -63 33 -63 49 0
6 -7 11 -16 11 -9 0 -28 8 -42 19 -15 10 -44 21 -64 25 -20 4 -38 11 -40 17
-2 6 -37 11 -78 12 -41 1 -78 6 -81 10 -4 5 -17 4 -29 -3 -27 -15 -52 2 -32
22 32 32 4 72 -70 105 -16 7 -28 19 -28 28 0 8 -9 15 -19 15 -11 0 -26 7 -35
15 -8 8 -21 12 -30 9 -9 -4 -25 5 -41 22 -14 15 -37 29 -50 30 -54 6 -65 14
-65 50 0 35 -16 46 -26 19 -4 -8 -14 -15 -25 -15 -23 0 -69 21 -69 32 0 4 -6
8 -14 8 -10 0 -20 -23 -30 -67z m452 -290 c-10 -2 -26 -2 -35 0 -10 3 -2 5 17
5 19 0 27 -2 18 -5z m-68 -50 c0 -11 -12 -25 -35 -45 -17 -13 -22 -14 -32 -3
-10 11 -6 17 20 34 34 22 47 26 47 14z m-87 -78 c4 -8 1 -17 -5 -21 -7 -4 -6
-9 2 -14 8 -5 10 -15 5 -26 -8 -17 -9 -17 -12 4 -3 12 -8 22 -12 22 -5 0 -6
11 -3 25 5 28 17 33 25 10z m395 -34 c12 -7 27 -9 32 -6 13 8 55 -21 55 -38 0
-6 9 -11 18 -10 13 1 17 -4 13 -14 -5 -11 -1 -14 13 -10 23 6 34 -5 49 -48 8
-22 11 -25 12 -10 l1 20 12 -20 c6 -11 12 -23 12 -27 0 -3 14 -22 31 -41 32
-37 64 -108 64 -144 0 -12 5 -25 10 -28 12 -7 14 -125 2 -125 -5 0 -8 24 -8
54 0 33 -6 60 -15 69 -8 8 -22 24 -31 36 -12 14 -29 21 -52 21 -37 0 -57 17
-35 30 8 6 -1 11 -27 15 -50 9 -116 38 -134 60 -8 9 -25 21 -38 26 -13 5 -20
14 -16 20 4 8 -3 9 -25 4 -25 -5 -30 -4 -25 8 5 15 -21 26 -61 27 -11 0 -35
13 -53 30 l-33 29 21 18 c11 10 31 28 44 41 18 17 31 21 49 17 14 -4 28 -2 31
4 8 13 53 9 84 -8z m-394 -165 c-4 -17 -1 -27 11 -34 15 -8 15 -10 2 -15 -21
-8 -41 39 -24 58 17 20 18 19 11 -9z m219 -106 c16 -6 31 -20 34 -31 3 -11 9
-16 12 -11 7 11 81 -7 81 -20 0 -4 27 -19 59 -34 33 -15 58 -31 55 -36 -3 -4
8 -11 23 -14 15 -4 46 -16 67 -27 34 -18 37 -22 20 -29 -16 -7 -15 -8 6 -7 53
2 60 -2 80 -45 31 -69 22 -79 -67 -71 -41 4 -86 13 -101 21 -15 8 -32 14 -39
14 -7 0 -16 6 -20 13 -4 8 -15 17 -23 21 -52 25 -154 120 -165 155 -3 11 -17
24 -30 27 -17 4 -28 19 -39 52 -20 56 -20 54 2 42 9 -5 30 -15 45 -20z m477
-261 c0 -10 -4 -19 -9 -19 -12 0 -23 29 -15 41 8 14 24 0 24 -22z m192 -43
c-4 -15 -7 -17 -10 -6 -3 8 -9 18 -14 21 -5 3 -6 13 -2 23 6 16 7 16 19 0 7
-10 10 -27 7 -38z m-35 -58 c-3 -8 -6 -5 -6 6 -1 11 2 17 5 13 3 -3 4 -12 1
-19z"/>
<path d="M1478 3483 c7 -3 16 -2 19 1 4 3 -2 6 -13 5 -11 0 -14 -3 -6 -6z"/>
<path d="M1300 3340 c0 -5 7 -10 16 -10 8 0 12 5 9 10 -3 6 -10 10 -16 10 -5
0 -9 -4 -9 -10z"/>
<path d="M1934 4059 c-63 -18 -74 -121 -19 -176 7 -6 36 -13 64 -15 41 -2 50
-6 45 -18 -4 -8 -11 -47 -17 -87 -9 -72 -9 -72 23 -113 27 -34 37 -40 69 -40
60 0 107 52 90 99 -8 21 -14 23 -49 18 -36 -5 -41 -3 -46 19 -9 34 25 98 55
102 20 3 23 0 19 -21 -5 -26 11 -37 53 -37 28 0 43 52 27 96 -18 52 -45 67
-115 62 l-58 -3 -3 31 c-4 39 -53 94 -84 93 -13 0 -37 -5 -54 -10z m51 -79 c3
-5 0 -10 -7 -11 -7 0 -4 -4 7 -9 19 -8 19 -9 -1 -9 -12 -1 -24 5 -27 13 -9 23
15 37 28 16z m65 -84 c0 -3 -4 -8 -10 -11 -5 -3 -10 -1 -10 4 0 6 5 11 10 11
6 0 10 -2 10 -4z"/>
<path d="M3627 4030 c-16 -9 -55 -23 -88 -30 -54 -12 -63 -17 -91 -57 -16 -25
-27 -47 -24 -51 4 -3 22 -6 41 -5 22 1 35 -4 35 -11 0 -7 -29 -57 -65 -112
-35 -54 -80 -130 -100 -168 -38 -74 -37 -88 13 -107 31 -12 55 8 83 66 10 22
38 70 61 106 24 37 57 88 73 114 17 27 40 57 53 68 12 11 22 25 22 30 0 5 17
29 37 54 40 49 46 87 15 111 -20 16 -31 14 -65 -8z"/>
<path d="M2629 3974 c-11 -14 -10 -19 10 -36 30 -24 46 -10 30 25 -14 31 -21
33 -40 11z"/>
<path d="M4926 3891 c-11 -18 3 -44 39 -74 30 -24 36 -26 54 -15 26 16 27 39
4 67 -20 24 -87 39 -97 22z"/>
<path d="M3785 3870 c-22 -11 -54 -33 -70 -49 -30 -29 -115 -143 -115 -155 0
-4 -11 -23 -23 -44 -28 -43 -47 -114 -47 -171 0 -55 39 -101 85 -101 37 0 85
18 85 32 0 4 17 25 38 46 50 51 75 103 92 191 10 55 -3 85 -41 101 l-29 12 36
29 c42 33 54 30 54 -12 0 -22 6 -32 26 -39 34 -13 44 -13 44 4 0 8 5 16 11 18
6 2 13 25 16 50 5 42 3 50 -25 78 -37 36 -78 39 -137 10z m-49 -271 c4 -51
-78 -140 -104 -115 -12 13 24 93 52 118 36 32 50 31 52 -3z"/>
<path d="M4421 3623 c-8 -3 -23 -14 -35 -23 -12 -10 -34 -29 -50 -42 -26 -22
-27 -26 -15 -46 21 -33 50 -38 70 -13 21 25 74 29 83 5 8 -20 -20 -74 -38 -74
-8 0 -16 -6 -19 -14 -3 -7 -25 -23 -49 -35 -23 -13 -86 -49 -139 -82 -96 -59
-169 -132 -169 -170 0 -11 32 -33 101 -68 55 -28 106 -51 113 -51 14 0 59 62
70 96 6 21 -10 38 -68 69 -26 14 -23 25 11 44 15 9 30 19 31 24 2 4 8 7 14 7
5 0 36 16 67 35 123 76 181 156 181 249 0 46 -3 53 -33 74 -32 21 -92 28 -126
15z"/>
<path d="M3951 3528 c-7 -24 -20 -59 -28 -78 -17 -37 -42 -123 -50 -177 -4
-28 -2 -33 14 -33 17 0 74 58 97 99 5 9 15 20 23 24 15 9 18 37 3 37 -5 0 -10
-4 -10 -8 0 -4 -13 -16 -30 -25 l-30 -18 0 43 c0 24 6 61 14 83 21 63 27 95
18 95 -5 0 -14 -19 -21 -42z"/>
<path d="M1790 3350 c0 -11 5 -20 10 -20 6 0 10 9 10 20 0 11 -4 20 -10 20 -5
0 -10 -9 -10 -20z"/>
<path d="M3708 3091 c-29 -15 -71 -40 -92 -54 -21 -15 -43 -27 -47 -27 -5 0
-9 -16 -9 -36 0 -27 5 -37 20 -41 11 -3 20 -12 20 -19 0 -8 7 -14 15 -14 11 0
15 -11 15 -38 0 -55 15 -65 61 -41 l39 19 0 -30 c0 -52 47 -100 95 -98 59 2
111 80 85 128 -17 31 -5 50 30 50 29 0 30 2 30 41 0 77 -31 106 -108 101 -27
-1 -71 -45 -112 -112 -5 -8 -12 -11 -16 -8 -6 7 18 80 43 128 17 33 16 67 -2
74 -8 3 -38 -7 -67 -23z m126 -258 l-26 -28 7 30 c3 17 11 32 16 33 5 2 9 12
9 21 0 32 15 34 18 2 2 -22 -4 -38 -24 -58z"/>
<path d="M1193 3096 c-20 -9 -22 -17 -20 -56 3 -35 7 -45 20 -44 10 1 27 -12
39 -30 12 -17 28 -35 36 -40 8 -4 24 -18 36 -30 24 -24 191 -127 310 -190 119
-64 146 -80 146 -88 0 -5 6 -8 14 -8 7 0 65 -29 129 -64 63 -34 121 -66 128
-70 8 -3 32 -17 54 -29 50 -28 135 -73 155 -81 8 -4 35 -20 60 -36 44 -29 77
-46 93 -49 4 0 30 -17 57 -36 27 -19 53 -35 58 -35 4 0 42 -18 82 -39 75 -40
205 -104 248 -122 12 -5 32 -13 45 -19 12 -5 65 -23 117 -41 99 -32 182 -72
212 -101 10 -10 21 -18 26 -18 4 0 16 -14 27 -30 11 -16 24 -30 29 -30 4 0 23
-12 41 -27 18 -16 46 -38 62 -51 23 -19 110 -73 243 -152 8 -5 42 -21 75 -37
93 -43 270 -45 379 -3 36 13 29 21 -31 30 -114 19 -389 180 -482 283 -89 100
-120 125 -191 159 -41 19 -104 40 -140 47 -70 13 -210 63 -250 91 -14 9 -56
34 -95 55 -38 21 -108 59 -155 85 -47 26 -114 63 -150 82 -122 66 -175 95
-214 117 -22 13 -63 35 -90 49 -28 14 -102 54 -164 89 -63 35 -116 63 -119 63
-3 0 -31 15 -62 34 -31 18 -101 57 -156 86 -55 29 -116 62 -135 73 -34 19
-128 70 -285 154 -92 49 -145 74 -154 72 -3 -1 -16 -6 -28 -13z"/>
<path d="M3374 3086 c-10 -26 0 -47 31 -64 17 -9 32 -20 35 -23 3 -3 21 -11
40 -18 29 -10 36 -9 51 6 27 28 8 60 -53 88 -60 28 -96 32 -104 11z"/>
<path d="M4060 2910 c0 -5 5 -10 10 -10 6 0 10 5 10 10 0 6 -4 10 -10 10 -5 0
-10 -4 -10 -10z"/>
<path d="M4093 2873 c-7 -2 -13 -11 -13 -20 0 -28 -26 -42 -76 -40 -48 2 -49
2 -52 -31 -3 -26 3 -38 26 -58 28 -25 29 -28 19 -67 -9 -35 -8 -42 9 -54 25
-18 36 -13 57 29 16 33 20 36 55 31 33 -4 38 -1 50 23 18 40 15 53 -13 64 -28
11 -30 20 -13 66 17 47 -7 74 -49 57z"/>
<path d="M5350 2841 c0 -10 19 -25 25 -20 1 2 -3 10 -11 17 -8 7 -14 8 -14 3z"/>
<path d="M5395 2811 c3 -6 26 -19 50 -30 25 -11 45 -25 45 -30 0 -6 7 -11 16
-11 15 0 76 -31 189 -96 81 -46 164 -91 250 -133 44 -22 113 -58 154 -80 79
-43 113 -50 39 -8 -39 22 -83 46 -294 158 -40 20 -90 49 -113 63 -22 14 -46
26 -52 26 -6 0 -23 8 -37 19 -40 27 -255 133 -247 122z"/>
<path d="M5680 2576 c0 -2 9 -6 20 -9 11 -3 20 -1 20 4 0 5 -9 9 -20 9 -11 0
-20 -2 -20 -4z"/>
<path d="M6220 2366 c14 -8 27 -12 29 -10 6 6 -1 11 -29 18 l-25 7 25 -15z"/>
<path d="M4740 2314 c1 -20 27 -40 63 -49 21 -6 38 -14 37 -18 -2 -14 33 -35
48 -29 8 3 17 1 21 -5 5 -8 183 -94 321 -155 25 -11 76 -36 113 -54 38 -19 75
-34 83 -34 8 0 14 -4 14 -10 0 -5 4 -10 9 -10 5 0 22 -5 38 -11 15 -7 38 -13
51 -15 22 -3 30 -7 72 -42 9 -7 56 -31 106 -53 49 -22 96 -44 105 -49 8 -4 40
-20 70 -35 30 -15 61 -30 69 -35 88 -49 314 -159 320 -155 4 2 5 16 2 30 -4
24 -16 30 -57 27 -16 -2 -17 0 -5 8 12 7 12 12 2 22 -6 6 -12 8 -12 4 0 -5 -7
-3 -15 4 -8 7 -21 10 -29 7 -8 -3 -32 3 -53 13 -21 11 -32 19 -24 20 8 0 3 8
-12 20 -31 24 -34 25 -40 3 -3 -14 -6 -12 -15 9 -7 17 -22 30 -39 34 -82 21
-164 80 -135 97 9 6 229 -103 288 -143 25 -16 50 -30 57 -30 13 0 108 -48 117
-59 5 -5 21 -14 100 -50 14 -6 66 -33 115 -60 50 -27 119 -64 155 -82 36 -18
70 -39 76 -47 11 -15 34 -9 34 8 0 9 -198 110 -217 110 -6 0 -13 4 -15 9 -1 5
-48 32 -103 61 -55 29 -131 69 -170 90 -136 72 -495 249 -620 305 -22 10 -76
35 -120 56 -44 22 -86 39 -92 39 -7 0 -13 5 -13 10 0 6 -6 10 -13 10 -7 0 -31
9 -52 21 -48 25 -129 54 -101 36 11 -7 26 -19 35 -27 9 -8 36 -22 61 -29 25
-8 79 -31 120 -51 205 -100 288 -139 318 -150 42 -16 41 -26 -4 -34 -19 -4
-41 -9 -49 -12 -8 -3 -19 6 -27 22 -10 21 -21 27 -51 29 -25 1 -43 9 -52 22
-19 27 -94 67 -122 65 -13 -1 -23 3 -23 8 0 12 -75 60 -93 60 -20 0 -119 41
-138 57 -8 7 -23 13 -32 13 -10 0 -25 9 -34 20 -10 11 -27 20 -38 20 -12 0
-26 5 -32 11 -5 5 -28 12 -49 14 -21 2 -40 9 -42 15 -4 10 -44 31 -67 35 -16
2 -69 26 -75 33 -6 9 -72 32 -90 32 -7 0 -22 7 -32 17 -10 9 -18 12 -18 7z"/>
<path d="M6336 2305 c10 -8 26 -14 34 -14 9 0 4 6 -10 14 -33 19 -49 19 -24 0z"/>
<path d="M4682 2243 c-23 -29 -28 -43 -14 -43 8 0 52 54 52 65 0 13 -18 3 -38
-22z"/>
<path d="M6500 2221 c0 -5 14 -12 30 -16 17 -4 30 -10 30 -14 0 -4 19 -15 43
-25 23 -10 52 -22 64 -28 13 -6 25 -9 28 -6 5 4 -176 98 -189 98 -3 0 -6 -4
-6 -9z"/>
<path d="M6710 2120 c0 -4 14 -13 31 -19 39 -13 42 -14 35 -2 -8 13 -66 32
-66 21z"/>
<path d="M4593 2044 c-6 -16 22 -77 47 -99 8 -7 44 -21 80 -30 36 -9 74 -19
85 -22 19 -5 19 -5 -1 13 -12 11 -44 30 -73 44 -35 17 -51 31 -51 45 0 21 -45
65 -67 65 -7 0 -16 -7 -20 -16z"/>
<path d="M6864 2045 c36 -19 57 -19 32 0 -11 8 -29 15 -40 15 -18 0 -16 -3 8
-15z"/>
<path d="M6930 2016 c0 -2 7 -6 15 -10 8 -3 15 -1 15 4 0 6 -7 10 -15 10 -8 0
-15 -2 -15 -4z"/>
<path d="M6994 1985 c11 -8 31 -15 45 -15 l26 1 -25 14 c-14 8 -34 14 -45 14
-20 0 -20 0 -1 -14z"/>
<path d="M7095 1950 c17 -11 39 -20 50 -19 14 0 7 6 -20 19 -53 25 -67 25 -30
0z"/>
<path d="M7300 1881 c14 -11 35 -21 46 -21 12 0 47 -11 78 -25 31 -14 65 -25
75 -25 10 0 21 -3 24 -6 9 -9 119 -54 132 -54 6 0 37 -14 70 -30 33 -16 68
-30 78 -30 10 0 17 -8 17 -19 0 -19 28 -37 39 -25 3 4 0 9 -6 11 -7 3 -13 8
-13 12 0 12 48 1 60 -14 6 -7 20 -11 30 -8 14 4 20 0 20 -11 0 -9 7 -16 15
-16 9 0 15 -9 15 -24 0 -27 25 -42 34 -20 3 8 16 14 29 14 30 0 117 -29 137
-45 15 -12 152 -57 157 -51 7 6 -301 136 -323 136 -8 0 -14 5 -14 10 0 6 -7
10 -16 10 -9 0 -88 29 -177 64 -89 35 -225 84 -302 110 -77 26 -149 51 -160
56 -11 5 -31 12 -45 15 l-25 6 25 -20z"/>
<path d="M7112 1876 c7 -8 15 -12 17 -11 5 6 -10 25 -20 25 -5 0 -4 -6 3 -14z"/>
<path d="M5080 1756 c0 -2 9 -6 20 -9 11 -3 20 -1 20 4 0 5 -9 9 -20 9 -11 0
-20 -2 -20 -4z"/>
<path d="M5148 1723 c6 -2 18 -2 25 0 6 3 1 5 -13 5 -14 0 -19 -2 -12 -5z"/>
<path d="M5215 1700 c3 -5 11 -10 16 -10 6 0 7 5 4 10 -3 6 -11 10 -16 10 -6
0 -7 -4 -4 -10z"/>
<path d="M6110 1690 c0 -5 7 -10 16 -10 8 0 12 5 9 10 -3 6 -10 10 -16 10 -5
0 -9 -4 -9 -10z"/>
<path d="M5280 1660 c0 -5 5 -10 11 -10 5 0 7 5 4 10 -3 6 -8 10 -11 10 -2 0
-4 -4 -4 -10z"/>
<path d="M5356 1635 c4 -8 10 -12 15 -9 11 6 2 24 -11 24 -5 0 -7 -7 -4 -15z"/>
<path d="M6304 1578 c-8 -12 13 -28 37 -28 9 0 22 -12 28 -27 6 -16 26 -37 44
-47 80 -48 223 -116 244 -116 13 0 26 -7 29 -15 4 -8 16 -15 29 -15 12 0 29
-7 36 -16 8 -9 43 -30 79 -46 36 -16 106 -49 155 -73 50 -24 131 -62 180 -85
50 -23 133 -63 185 -89 52 -26 111 -53 130 -61 19 -7 98 -43 175 -80 77 -37
167 -80 200 -95 60 -28 160 -75 376 -179 64 -31 123 -56 132 -56 9 0 19 -4 22
-10 12 -20 32 -9 49 27 l18 37 -29 23 c-15 13 -33 23 -39 23 -16 0 -64 24 -64
33 0 4 -7 7 -15 7 -8 0 -50 17 -93 39 -44 21 -91 41 -106 45 -14 3 -26 11 -26
16 0 6 -5 10 -12 10 -6 0 -82 34 -167 77 -86 42 -187 90 -226 108 -78 36 -185
86 -320 150 -49 23 -115 54 -145 68 -30 14 -93 44 -140 66 -47 23 -91 41 -97
41 -27 0 -12 -19 24 -31 54 -17 142 -59 148 -70 4 -5 17 -9 30 -9 12 0 26 -7
29 -16 5 -12 2 -15 -11 -9 -53 22 -124 45 -154 50 -20 3 -42 16 -53 31 -17 23
-19 23 -31 8 -11 -16 -14 -16 -41 3 -16 11 -39 23 -51 27 -12 4 -31 18 -42 32
-10 13 -28 24 -39 24 -12 0 -23 4 -27 10 -3 5 -12 7 -20 4 -8 -3 -21 5 -31 20
-13 22 -19 24 -31 14 -12 -10 -18 -8 -31 9 -10 11 -32 29 -49 39 -18 10 -33
21 -33 24 0 6 -11 8 -65 13 -14 1 -25 8 -25 14 0 7 -15 20 -32 29 -18 9 -40
22 -48 29 -25 21 -79 35 -86 23z m987 -434 c8 -8 25 -14 37 -14 11 0 24 -4 27
-10 3 -6 -5 -10 -19 -10 -14 0 -28 5 -32 11 -3 6 -14 9 -24 6 -23 -6 -50 10
-50 29 0 18 35 11 61 -12z m159 -70 c53 -27 61 -40 33 -51 -11 -4 -22 1 -31
15 -8 12 -20 22 -26 22 -6 0 -24 9 -41 20 -28 19 -28 20 -7 20 12 0 45 -12 72
-26z m124 -64 c27 -10 37 -50 14 -50 -31 0 -57 13 -61 30 -8 31 5 36 47 20z
m116 -56 c8 -7 28 -16 43 -20 18 -4 24 -9 17 -14 -7 -4 -28 1 -48 11 -21 10
-45 20 -54 23 -10 3 -18 10 -18 15 0 12 40 2 60 -15z m-2 -38 c4 -18 -17 -14
-53 11 -18 12 -17 13 15 10 22 -3 36 -10 38 -21z m72 -31 c0 -13 -4 -14 -20
-5 -11 6 -20 13 -20 15 0 3 9 5 20 5 11 0 20 -7 20 -15z m110 -16 c0 -5 7 -9
16 -9 8 0 13 -4 9 -10 -4 -6 -15 -5 -30 2 -30 14 -41 38 -14 31 10 -3 19 -9
19 -14z m-36 -18 c13 -5 16 -10 8 -15 -6 -4 -24 0 -39 8 -23 13 -24 15 -8 15
11 0 29 -4 39 -8z m230 -72 c39 -18 66 -37 66 -46 0 -10 6 -13 17 -9 17 7 113
-32 113 -46 0 -5 7 -8 15 -8 8 0 15 -7 15 -15 0 -21 -16 -19 -40 5 -11 11 -26
17 -35 13 -9 -3 -26 -1 -38 5 -60 28 -96 42 -110 42 -8 0 -26 11 -41 25 -15
14 -34 25 -42 25 -7 0 -14 9 -14 20 0 27 17 25 94 -11z m266 -154 c0 -8 -7
-15 -15 -15 -26 0 -18 20 13 29 1 1 2 -6 2 -14z m76 -30 c21 -45 -18 -50 -41
-5 -15 29 -15 30 7 30 15 0 27 -9 34 -25z"/>
<path d="M8355 1480 c3 -5 8 -10 11 -10 2 0 4 5 4 10 0 6 -5 10 -11 10 -5 0
-7 -4 -4 -10z"/>
<path d="M8400 1462 c0 -4 15 -13 33 -20 17 -8 67 -29 109 -48 43 -19 82 -34
88 -34 5 0 10 -4 10 -9 0 -5 10 -12 23 -16 45 -13 103 -40 128 -60 21 -17 24
-25 15 -37 -6 -8 -18 -17 -26 -21 -13 -4 -12 -6 1 -6 9 -1 19 -7 22 -15 3 -7
20 -16 39 -20 18 -3 53 -20 77 -36 24 -17 53 -30 65 -30 12 0 30 -7 40 -15 11
-8 30 -15 42 -15 13 0 26 -4 29 -10 3 -5 11 -10 18 -10 6 0 -5 12 -26 27 -22
16 -37 34 -37 47 0 12 -4 26 -8 32 -7 10 -371 194 -385 194 -5 0 -43 16 -85
36 -130 61 -172 77 -172 66z m527 -254 c15 -7 45 -23 67 -36 33 -21 37 -26 24
-38 -16 -16 -25 -13 -105 39 -63 40 -53 64 14 35z"/>
<path d="M5800 1423 c0 -12 60 -46 68 -39 8 9 -9 26 -27 26 -9 0 -22 5 -29 12
-8 8 -12 9 -12 1z"/>
<path d="M6800 1382 c0 -5 32 -23 71 -42 52 -24 73 -30 82 -21 8 8 8 11 -1 11
-7 0 -41 14 -75 30 -68 32 -77 35 -77 22z"/>
<path d="M5900 1365 c7 -8 17 -15 22 -15 6 0 5 7 -2 15 -7 8 -17 15 -22 15 -6
0 -5 -7 2 -15z"/>
<path d="M8495 1360 c3 -5 10 -10 16 -10 5 0 9 5 9 10 0 6 -7 10 -16 10 -8 0
-12 -4 -9 -10z"/>
<path d="M6005 1310 c-3 -5 3 -10 15 -10 12 0 18 5 15 10 -3 6 -10 10 -15 10
-5 0 -12 -4 -15 -10z"/>
<path d="M8580 1301 c0 -11 25 -21 53 -21 21 1 21 1 -3 15 -29 16 -50 19 -50
6z"/>
<path d="M8700 1252 c0 -10 48 -38 54 -31 9 8 -9 26 -31 33 -13 4 -23 3 -23
-2z"/>
<path d="M6175 1220 c28 -12 37 -12 30 0 -3 6 -16 10 -28 9 -21 0 -21 -1 -2
-9z"/>
<path d="M9064 1142 c2 -4 25 -18 50 -31 25 -12 46 -27 46 -32 0 -5 8 -9 18
-9 9 -1 35 -9 57 -20 43 -21 76 -27 59 -10 -5 5 -54 32 -108 60 -92 46 -134
61 -122 42z"/>
<path d="M9154 1035 c25 -19 46 -19 46 0 0 10 -10 15 -32 15 -31 -1 -32 -1
-14 -15z"/>
<path d="M9305 1010 c-4 -6 -10 -8 -14 -6 -4 3 -13 0 -21 -5 -13 -8 -13 -10
-1 -18 8 -5 19 -7 25 -5 6 2 20 -3 31 -12 17 -12 18 -16 5 -24 -18 -11 -13
-15 23 -24 26 -6 27 -5 21 21 -9 39 -14 45 -30 39 -8 -3 -14 -1 -14 5 0 7 12
8 30 4 37 -8 39 6 3 23 -33 15 -50 15 -58 2z"/>
<path d="M9430 955 c0 -7 6 -16 13 -19 6 -4 1 -4 -12 -2 -22 5 -23 3 -9 -10
21 -21 84 -34 97 -21 11 11 12 9 15 -15 0 -7 10 -14 21 -16 11 -2 27 -10 36
-18 12 -11 18 -11 27 -2 9 9 19 5 42 -17 16 -16 30 -32 30 -37 0 -16 -51 -7
-67 12 -10 11 -27 20 -39 20 -12 0 -24 4 -26 9 -1 5 -21 12 -43 15 -30 4 -34
3 -15 -3 14 -5 21 -10 15 -10 -9 -1 34 -23 198 -102 52 -25 66 -24 77 7 20 52
14 60 -67 94 -43 18 -96 40 -118 50 -42 19 -64 27 -79 28 -5 0 -12 5 -15 10
-3 5 -23 17 -43 25 -31 13 -38 14 -38 2z m280 -130 c0 -8 -4 -15 -10 -15 -5 0
-10 7 -10 15 0 8 5 15 10 15 6 0 10 -7 10 -15z m60 -44 c0 -13 -39 -21 -46
-10 -3 6 -3 17 0 25 4 12 10 13 26 4 11 -6 20 -15 20 -19z"/>
</g>
</svg>
