<?xml version="1.0" standalone="no"?>
<!DOCTYPE svg PUBLIC "-//W3C//DTD SVG 20010904//EN"
 "http://www.w3.org/TR/2001/REC-SVG-20010904/DTD/svg10.dtd">
<svg version="1.0" xmlns="http://www.w3.org/2000/svg"
 width="500.000000pt" height="500.000000pt" viewBox="0 0 500.000000 500.000000"
 preserveAspectRatio="xMidYMid meet">

<g transform="translate(0.000000,500.000000) scale(0.100000,-0.100000)"
fill="#000000" stroke="none">
<path d="M3480 3646 c0 -2 8 -10 18 -17 15 -13 16 -12 3 4 -13 16 -21 21 -21
13z"/>
<path d="M2919 3543 c-1 -5 -1 -11 0 -15 0 -4 -23 -16 -52 -27 -44 -16 -52
-23 -49 -43 1 -12 -1 -18 -5 -13 -12 15 -34 17 -49 4 -24 -20 -16 -39 15 -39
16 0 31 -4 33 -9 2 -5 41 9 88 31 84 39 85 39 115 22 16 -9 40 -26 52 -37 12
-11 29 -17 37 -14 9 4 18 2 21 -3 4 -6 1 -10 -6 -10 -7 0 -3 -10 9 -23 29 -31
28 -47 -3 -47 -28 0 -34 4 -98 63 -43 39 -50 40 -115 11 l-33 -15 48 -32 c42
-28 48 -37 51 -71 2 -22 -1 -36 -6 -32 -5 3 -10 0 -9 -7 1 -33 -5 -46 -23 -52
-11 -4 -18 -11 -15 -16 3 -5 -1 -6 -9 -3 -9 3 -16 2 -16 -4 0 -14 -108 -14
-157 0 -72 21 -51 38 38 32 58 -3 106 14 122 42 5 8 12 12 17 9 12 -7 -7 45
-24 68 -8 11 -30 19 -57 21 -24 2 -57 7 -73 11 -24 7 -26 9 -12 17 9 5 14 14
10 19 -4 6 -11 6 -20 -2 -11 -9 -20 -8 -39 5 -20 13 -28 14 -45 4 -11 -7 -20
-18 -20 -25 0 -7 -18 -18 -40 -24 -21 -7 -37 -15 -35 -19 2 -3 -6 -6 -18 -6
-14 1 -26 -8 -32 -22 -5 -12 -17 -21 -25 -20 -25 3 -59 -12 -70 -32 -5 -10
-21 -21 -34 -24 -14 -3 -42 -17 -62 -31 -20 -14 -44 -25 -53 -25 -9 0 -22 -4
-30 -9 -12 -8 -11 -12 4 -27 17 -17 17 -17 11 4 -5 13 -3 22 3 22 6 0 11 -4
11 -10 0 -6 10 -5 25 2 14 6 25 15 25 19 0 6 83 39 98 39 2 0 1 -11 -2 -25 -4
-17 -2 -25 6 -25 7 0 -6 -18 -30 -40 -23 -22 -42 -47 -42 -55 0 -8 -4 -15 -10
-15 -5 0 -10 -4 -10 -9 0 -9 33 -8 150 4 30 3 71 8 91 10 20 1 46 6 58 10 15
4 23 1 27 -9 9 -22 -10 -41 -64 -67 -26 -13 -65 -34 -86 -47 -22 -14 -63 -37
-90 -53 -36 -20 -50 -34 -49 -47 3 -29 -41 -46 -83 -32 -19 7 -34 18 -34 26 0
9 5 12 10 9 6 -3 10 -2 10 2 0 8 62 48 140 89 19 11 37 22 40 25 3 4 15 9 28
13 18 6 20 10 9 21 -11 11 -34 12 -113 5 -100 -9 -127 -3 -99 20 8 7 15 21 15
31 0 11 3 19 8 19 10 0 31 48 24 55 -3 3 -14 -3 -25 -12 -10 -10 -22 -18 -26
-17 -10 1 -61 -32 -56 -37 2 -3 -5 -5 -16 -6 -10 -1 -45 -17 -77 -37 -64 -38
-112 -55 -112 -37 0 6 8 11 17 11 15 0 14 2 -3 14 -16 13 -20 13 -27 0 -4 -8
-15 -14 -23 -14 -15 0 -76 -39 -82 -52 -2 -5 -12 -8 -23 -8 -10 0 -19 -4 -19
-10 0 -5 -22 -21 -49 -35 -27 -13 -52 -29 -56 -35 -3 -5 -15 -10 -25 -10 -10
0 -25 -7 -33 -14 -8 -8 -38 -18 -66 -22 -62 -8 -133 -52 -166 -103 -55 -84
-55 -258 -1 -419 33 -96 31 -94 72 -77 25 10 41 12 54 5 13 -7 20 -6 24 6 4
11 14 15 29 12 13 -3 29 1 35 9 10 11 8 13 -15 13 -24 1 -25 2 -10 11 27 16
86 -10 113 -51 28 -40 30 -52 8 -43 -12 4 -14 0 -8 -23 4 -16 16 -40 27 -54
19 -24 19 -24 13 -3 -9 28 3 51 15 32 11 -17 12 -88 1 -74 -4 6 -17 12 -29 12
-18 1 -23 -4 -23 -22 0 -13 -6 -28 -14 -32 -23 -14 -119 -104 -105 -98 8 3 24
-9 38 -30 35 -52 149 -155 214 -194 122 -72 196 -79 294 -28 76 39 789 466
926 555 54 35 106 66 115 69 9 3 26 14 37 24 11 9 54 36 95 59 102 58 180 109
180 120 0 5 12 22 26 37 14 15 31 35 39 43 7 8 19 43 25 78 7 34 17 62 21 62
5 0 9 5 9 11 0 5 -4 7 -10 4 -6 -4 -10 9 -10 30 0 28 4 36 14 32 16 -6 28 26
15 40 -4 4 -10 29 -13 55 -3 26 -16 67 -29 91 -42 84 -77 147 -81 147 -5 0 17
-84 24 -90 3 -3 6 -16 8 -30 1 -17 -8 -5 -29 34 -17 32 -39 67 -49 78 -10 11
-16 26 -13 34 3 8 0 14 -6 14 -6 0 -11 7 -11 15 0 8 -5 14 -11 13 -6 -2 -13 6
-15 17 -1 11 -10 25 -18 31 -9 6 -16 15 -16 20 -1 23 -130 162 -211 227 -69
56 -149 87 -219 87 -33 0 -61 -3 -61 -7z m131 -73 c0 -5 -6 -10 -14 -10 -8 0
-18 5 -21 10 -3 6 3 10 14 10 12 0 21 -4 21 -10z m30 -30 c0 -5 -2 -10 -4 -10
-3 0 -8 5 -11 10 -3 6 -1 10 4 10 6 0 11 -4 11 -10z m-423 -106 c-3 -3 -12 -4
-19 -1 -8 3 -5 6 6 6 11 1 17 -2 13 -5z m-37 -24 c-13 -8 -13 -10 2 -10 12 0
15 -5 11 -17 -4 -12 1 -10 14 6 24 29 43 21 43 -18 0 -16 7 -34 15 -41 19 -16
19 -26 -1 -34 -19 -7 -61 20 -69 44 -3 11 -14 22 -24 25 -30 9 -19 55 14 55 6
0 3 -5 -5 -10z m760 -140 c0 -4 -6 -10 -13 -13 -8 -3 -14 4 -15 20 -2 22 0 24
13 13 8 -7 15 -16 15 -20z m-53 -40 c-1 -15 -6 -26 -11 -22 -5 3 -6 -2 -3 -12
4 -11 3 -15 -4 -11 -13 9 -160 -55 -153 -67 3 -4 -2 -5 -10 -2 -9 3 -26 -5
-41 -20 -22 -22 -24 -28 -14 -50 7 -14 15 -24 18 -22 3 2 7 -7 8 -21 3 -51 43
-55 96 -9 15 13 43 27 62 30 19 4 35 12 35 19 0 7 8 3 17 -8 13 -17 15 -17 10
-2 -4 11 1 25 13 37 11 11 20 15 20 9 0 -6 7 -3 16 6 12 12 19 13 30 4 8 -6
14 -15 14 -18 0 -17 -59 -69 -100 -90 -142 -69 -145 -72 -150 -126 -6 -59 -33
-76 -43 -27 -5 26 -10 29 -34 25 -67 -11 -78 -9 -81 16 -2 13 1 21 6 17 10 -6
52 30 52 45 0 23 -56 109 -67 105 -7 -3 -10 1 -6 10 3 7 1 14 -4 14 -5 0 -9
13 -8 29 0 20 9 36 30 52 16 13 25 17 20 9 -7 -12 -5 -12 11 1 28 23 106 59
116 53 4 -3 8 2 8 11 0 9 5 13 10 10 6 -3 10 -1 10 4 0 6 15 11 33 12 17 0 26
3 20 6 -7 2 -13 9 -13 15 0 6 6 8 14 5 8 -3 20 1 27 9 10 13 14 12 30 -2 11
-9 17 -28 16 -44z m123 10 c0 -5 -8 -10 -17 -10 -15 0 -16 2 -3 10 19 12 20
12 20 0z m-2 -32 c7 9 5 3 -4 -14 -15 -29 -18 -30 -34 -17 -10 9 -15 24 -13
34 5 19 6 19 22 0 16 -18 18 -18 29 -3z m-168 -68 c0 -5 -2 -10 -4 -10 -3 0
-8 5 -11 10 -3 6 -1 10 4 10 6 0 11 -4 11 -10z m-80 -10 c-8 -5 -19 -10 -25
-10 -5 0 -3 5 5 10 8 5 20 10 25 10 6 0 3 -5 -5 -10z m-142 -175 c-3 -3 -9 2
-12 12 -6 14 -5 15 5 6 7 -7 10 -15 7 -18z m-230 -15 c3 -17 -5 -32 -25 -48
-15 -13 -22 -21 -14 -17 9 6 12 4 7 -4 -4 -6 -11 -9 -16 -6 -10 6 -136 -58
-215 -111 -96 -62 -112 -69 -130 -54 -8 7 -15 18 -15 25 0 13 43 46 66 49 7 1
21 10 32 19 10 9 24 17 30 17 7 0 12 4 12 8 0 5 11 15 25 22 14 7 25 19 25 26
0 8 11 16 25 20 14 3 25 10 25 16 0 5 4 7 9 3 5 -3 16 4 24 15 8 12 24 22 36
23 11 1 21 5 21 10 0 5 6 7 13 4 8 -3 20 -1 28 4 21 13 34 6 37 -21z m821 -37
c1 -7 -3 -13 -8 -13 -5 0 -11 6 -14 13 -2 6 -3 4 -2 -5 2 -10 -1 -21 -6 -24
-5 -3 -9 11 -9 31 0 22 4 34 10 30 6 -3 10 2 11 12 1 13 3 11 9 -7 4 -14 8
-31 9 -37z m-22 -105 c-2 -13 -4 -5 -4 17 -1 22 1 32 4 23 2 -10 2 -28 0 -40z
m-840 16 c-3 -3 -12 -4 -19 -1 -8 3 -5 6 6 6 11 1 17 -2 13 -5z m673 -81 c-1
-19 -28 -55 -34 -45 -9 15 -51 1 -116 -39 -30 -18 -57 -36 -60 -39 -3 -3 -22
-16 -42 -30 -23 -15 -40 -36 -44 -52 -6 -31 -19 -36 -28 -13 -3 8 -1 15 5 15
6 0 8 4 5 9 -4 5 -1 11 4 13 6 2 12 10 13 18 1 8 6 16 11 17 4 0 20 12 34 26
15 14 37 28 50 32 12 3 22 11 22 16 0 6 3 8 8 5 4 -2 16 2 27 10 10 8 15 14 9
14 -18 0 52 33 86 40 50 11 50 11 50 3z m-785 -42 c3 -5 1 -12 -5 -16 -5 -3
-10 1 -10 9 0 18 6 21 15 7z m782 -33 c-3 -8 -6 -5 -6 6 -1 11 2 17 5 13 3 -3
4 -12 1 -19z m33 12 c0 -5 -5 -10 -11 -10 -5 0 -7 5 -4 10 3 6 8 10 11 10 2 0
4 -4 4 -10z m-555 -36 c15 -14 22 -29 19 -39 -5 -11 -2 -14 10 -9 23 9 20 -9
-4 -24 -16 -10 -20 -10 -20 1 0 34 -85 71 -112 49 -7 -5 -24 -13 -38 -16 l-25
-7 24 14 c17 10 20 16 11 22 -7 4 -16 2 -22 -6 -8 -12 -9 -11 -6 1 5 18 93 49
119 43 10 -3 30 -16 44 -29z m-280 15 c10 -14 1 -21 -19 -13 -9 3 -13 10 -10
15 7 12 21 11 29 -2z m-275 -20 c0 -20 -21 -49 -35 -49 -19 0 -19 6 3 35 18
26 32 32 32 14z m1060 -49 c-6 -11 -13 -20 -16 -20 -2 0 0 9 6 20 6 11 13 20
16 20 2 0 0 -9 -6 -20z m-695 0 c19 -7 19 -8 -5 -18 -48 -19 -103 -81 -107
-120 -2 -20 -8 -39 -14 -42 -14 -9 10 -72 24 -63 7 3 9 3 5 -2 -4 -4 -3 -14 3
-21 6 -7 6 -14 1 -18 -15 -9 -30 15 -44 69 -9 33 -10 49 -2 52 6 2 8 17 6 34
-3 21 2 40 17 59 11 16 21 33 21 37 0 10 51 43 65 42 6 0 19 -4 30 -9z m231
-60 c-8 -49 -26 -80 -46 -80 -13 0 -13 1 0 10 8 5 11 10 6 10 -6 0 -2 6 9 13
12 10 16 22 13 40 -3 15 -1 24 3 21 5 -3 9 2 9 10 0 9 3 16 6 16 4 0 4 -18 0
-40z m-646 21 c0 -5 -6 -14 -14 -20 -11 -9 -16 -9 -21 0 -4 6 -1 15 6 20 18
11 29 11 29 0z m803 -51 c3 -11 1 -20 -4 -20 -5 0 -9 9 -9 20 0 11 2 20 4 20
2 0 6 -9 9 -20z m-8 -80 c-3 -5 3 -11 12 -13 14 -4 13 -5 -4 -6 -17 -1 -23 5
-23 20 0 11 5 17 10 14 6 -4 8 -10 5 -15z m-410 -110 c-3 -5 -11 -10 -16 -10
-6 0 -7 5 -4 10 3 6 11 10 16 10 6 0 7 -4 4 -10z m-30 -20 c3 -5 1 -10 -4 -10
-6 0 -11 5 -11 10 0 6 2 10 4 10 3 0 8 -4 11 -10z m-205 -170 c-19 -13 -30
-13 -30 0 0 6 10 10 23 10 18 0 19 -2 7 -10z m-40 -104 c0 -3 -13 -6 -28 -6
-15 0 -32 -3 -37 -7 -6 -5 1 3 15 17 19 20 28 22 38 13 6 -6 12 -14 12 -17z"/>
<path d="M3650 3461 c0 -5 5 -13 10 -16 6 -3 10 -2 10 4 0 5 -4 13 -10 16 -5
3 -10 2 -10 -4z"/>
<path d="M3681 3413 c-1 -12 4 -25 9 -28 12 -7 12 2 0 30 -8 19 -9 19 -9 -2z"/>
<path d="M3746 3330 c5 -8 9 -26 10 -40 0 -14 8 -37 17 -51 19 -29 51 -139 42
-147 -3 -3 -5 0 -5 6 0 7 -9 3 -20 -8 -12 -12 -18 -26 -14 -31 4 -8 9 -7 15 2
7 11 9 10 9 -3 0 -9 8 -22 18 -27 13 -8 14 -10 2 -11 -10 0 -11 -3 -4 -8 7 -4
19 -27 27 -52 9 -25 16 -38 17 -31 0 12 3 12 12 3 13 -13 13 -139 -1 -156 -5
-6 -5 -20 -1 -30 13 -38 24 6 28 120 4 106 3 116 -32 225 -20 63 -47 131 -60
150 -13 18 -26 44 -30 56 -4 11 -14 27 -23 35 -14 11 -15 11 -7 -2z m86 -282
c-7 -7 -12 -8 -12 -2 0 6 3 14 7 17 3 4 9 5 12 2 2 -3 -1 -11 -7 -17z"/>
<path d="M2380 3140 c0 -5 7 -10 15 -10 8 0 15 5 15 10 0 6 -7 10 -15 10 -8 0
-15 -4 -15 -10z"/>
<path d="M2170 3095 c-18 -13 -38 -22 -43 -18 -6 3 -7 1 -3 -6 5 -7 -4 -13
-25 -18 -19 -3 -34 -13 -36 -25 -3 -10 -12 -18 -21 -18 -8 0 -13 -3 -9 -6 8
-8 79 18 97 36 21 21 57 40 75 40 9 0 13 5 10 10 -3 6 1 10 9 10 9 0 16 5 16
10 0 18 -35 11 -70 -15z"/>
<path d="M3740 3087 c0 -4 6 -23 14 -42 8 -18 12 -35 10 -38 -2 -2 2 -16 10
-31 9 -17 17 -23 21 -16 4 6 2 16 -3 23 -5 7 -12 25 -16 41 -7 28 -36 79 -36
63z"/>
<path d="M3700 3043 c0 -13 5 -23 10 -23 13 0 13 11 0 30 -8 12 -10 11 -10 -7z"/>
<path d="M3717 2990 c3 -11 7 -20 9 -20 2 0 4 9 4 20 0 11 -4 20 -9 20 -5 0
-7 -9 -4 -20z"/>
<path d="M3731 2944 c0 -11 3 -14 6 -6 3 7 2 16 -1 19 -3 4 -6 -2 -5 -13z"/>
<path d="M3794 2912 c3 -5 6 -25 8 -45 2 -37 11 -47 24 -26 3 6 1 16 -5 22 -6
6 -11 21 -11 34 0 13 -5 23 -11 23 -5 0 -8 -4 -5 -8z"/>
<path d="M3651 2634 c0 -11 3 -14 6 -6 3 7 2 16 -1 19 -3 4 -6 -2 -5 -13z"/>
</g>
</svg>
