<?xml version="1.0" standalone="no"?>
<!DOCTYPE svg PUBLIC "-//W3C//DTD SVG 20010904//EN"
 "http://www.w3.org/TR/2001/REC-SVG-20010904/DTD/svg10.dtd">
<svg version="1.0" xmlns="http://www.w3.org/2000/svg"
 width="554.000000pt" height="554.000000pt" viewBox="0 0 554.000000 554.000000"
 preserveAspectRatio="xMidYMid meet">

<g transform="translate(0.000000,554.000000) scale(0.100000,-0.100000)"
fill="#000000" stroke="none">
<path d="M435 5427 c-18 -27 -12 -53 17 -68 43 -23 86 18 65 62 -17 34 -61 38
-82 6z"/>
<path d="M284 5395 c-7 -29 10 -55 36 -55 24 0 42 24 38 52 -2 18 -10 24 -35
26 -28 3 -33 -1 -39 -23z"/>
<path d="M609 5393 c-1 -5 -1 -11 0 -15 0 -4 -5 -5 -13 -2 -8 3 -16 -3 -19
-15 -8 -31 3 -63 19 -57 8 3 13 0 11 -6 -3 -19 32 -21 58 -4 33 21 34 69 3 90
-24 17 -57 21 -59 9z m39 -55 c-2 -5 -8 -9 -13 -9 -5 0 -11 4 -13 9 -1 5 4 9
13 9 9 0 14 -4 13 -9z"/>
<path d="M180 5315 c-18 -22 -1 -50 31 -50 20 0 24 5 24 30 0 23 -5 31 -21 33
-11 2 -27 -4 -34 -13z"/>
<path d="M300 5250 c0 -11 7 -20 15 -20 8 0 15 9 15 20 0 11 -7 20 -15 20 -8
0 -15 -9 -15 -20z"/>
<path d="M418 5249 c-10 -6 -18 -21 -18 -34 0 -16 -6 -25 -15 -25 -8 0 -15 -7
-15 -15 0 -8 7 -15 15 -15 12 0 15 -15 15 -79 0 -87 12 -111 56 -111 30 0 33
30 4 37 -18 5 -20 14 -20 79 0 67 2 74 20 74 11 0 20 7 20 15 0 8 -9 15 -19
15 -15 0 -21 8 -23 34 -3 30 -5 33 -20 25z"/>
<path d="M116 5184 c-4 -10 -1 -24 7 -31 19 -19 49 -5 45 21 -4 27 -43 34 -52
10z"/>
<path d="M300 5085 c0 -87 3 -105 15 -105 12 0 15 18 15 105 0 87 -3 105 -15
105 -12 0 -15 -18 -15 -105z"/>
<path d="M552 5180 c-30 -13 -56 -74 -48 -119 9 -56 47 -86 107 -86 44 0 54 4
77 30 22 26 23 30 8 33 -10 2 -28 -6 -40 -17 -31 -29 -70 -27 -95 5 -12 15
-21 31 -21 35 0 5 39 9 86 9 l87 0 -6 38 c-11 68 -82 101 -155 72z m100 -37
c34 -31 23 -43 -42 -43 -51 0 -60 3 -60 18 0 42 66 58 102 25z"/>
<path d="M794 5178 c-47 -22 -60 -124 -24 -171 26 -32 79 -44 121 -27 46 19
67 70 29 70 -11 0 -20 -7 -20 -15 0 -34 -67 -46 -93 -17 -24 26 -23 104 1 125
26 23 69 22 84 -3 7 -11 18 -20 25 -20 24 0 23 20 -1 45 -27 27 -82 33 -122
13z"/>
<path d="M110 5060 c0 -13 7 -20 20 -20 13 0 20 7 20 20 0 13 -7 20 -20 20
-13 0 -20 -7 -20 -20z"/>
<path d="M317 4933 c-14 -13 -7 -43 11 -43 14 0 14 2 3 9 -8 5 -11 16 -8 25 7
17 5 20 -6 9z"/>
<path d="M729 4923 c-12 -16 -12 -17 2 -6 12 10 18 10 29 0 12 -10 12 -9 1 6
-7 9 -15 17 -16 17 -1 0 -9 -8 -16 -17z"/>
<path d="M380 4910 c0 -11 4 -20 9 -20 5 0 7 9 4 20 -3 11 -7 20 -9 20 -2 0
-4 -9 -4 -20z"/>
<path d="M440 4910 c0 -13 6 -20 18 -19 12 0 13 2 3 6 -10 4 -10 7 -1 13 8 5
7 9 -4 13 -11 5 -16 1 -16 -13z"/>
<path d="M511 4918 c-1 -22 18 -33 32 -19 9 9 8 11 -5 6 -11 -4 -18 0 -21 12
-4 15 -5 16 -6 1z"/>
<path d="M650 4915 c0 -7 7 -12 15 -12 8 0 16 5 18 12 3 6 -4 11 -14 11 -11 0
-19 -5 -19 -11z"/>
<path d="M800 4917 c0 -7 9 -13 20 -14 18 -2 18 0 6 13 -18 17 -26 18 -26 1z"/>
<path d="M921 4918 c-1 -22 18 -33 32 -19 9 9 8 11 -5 6 -11 -4 -18 0 -21 12
-4 15 -5 16 -6 1z"/>
<path d="M1775 3960 c3 -5 8 -10 11 -10 2 0 4 5 4 10 0 6 -5 10 -11 10 -5 0
-7 -4 -4 -10z"/>
<path d="M1805 3960 c-3 -5 1 -10 10 -10 9 0 13 5 10 10 -3 6 -8 10 -10 10 -2
0 -7 -4 -10 -10z"/>
<path d="M1840 3950 c0 -5 4 -10 9 -10 6 0 13 5 16 10 3 6 -1 10 -9 10 -9 0
-16 -4 -16 -10z"/>
<path d="M2285 3611 c-72 -75 -209 -219 -305 -320 -96 -101 -214 -224 -262
-274 -83 -85 -88 -93 -103 -158 -19 -85 -19 -88 2 -111 14 -16 14 -22 3 -43
l-13 -25 -36 22 c-63 37 13 -26 214 -177 72 -54 238 -180 370 -280 132 -100
254 -190 271 -200 l32 -18 94 99 c52 54 110 116 129 137 l34 39 30 -23 c17
-12 1 6 -33 39 -72 68 -72 70 -5 134 l38 37 40 -34 40 -34 52 51 52 51 41 -28
c22 -16 44 -34 48 -41 13 -22 221 -173 227 -164 3 4 -7 18 -22 29 -16 11 -33
25 -39 30 -6 5 -28 20 -50 34 -57 38 -74 53 -74 65 0 5 -8 13 -17 16 -32 13
-172 121 -178 139 -4 12 8 32 41 67 l47 49 39 -34 40 -34 46 50 c25 27 50 49
56 49 6 0 43 -27 81 -61 94 -81 233 -180 239 -170 6 8 -38 45 -110 94 -23 15
-57 42 -75 58 -19 17 -71 58 -116 91 -46 34 -83 66 -83 72 0 7 22 33 48 59 43
42 50 46 62 33 7 -9 9 -16 4 -16 -5 0 9 -9 30 -21 41 -22 41 -22 67 24 6 11
11 66 11 123 1 122 5 115 -116 203 l-82 59 -74 -1 c-63 -2 -81 2 -113 21 -38
24 -41 32 -52 112 l-6 45 -186 138 c-151 111 -192 137 -217 136 -26 -1 -52
-23 -161 -138z m200 -91 c3 -5 1 -10 -4 -10 -6 0 -11 5 -11 10 0 6 2 10 4 10
3 0 8 -4 11 -10z m-45 -50 c0 -5 -2 -10 -4 -10 -3 0 -8 5 -11 10 -3 6 -1 10 4
10 6 0 11 -4 11 -10z m0 -41 c0 -6 -8 -8 -19 -4 -30 9 -37 -16 -11 -37 12 -10
21 -21 18 -23 -2 -3 -14 4 -26 15 -22 21 -28 41 -15 53 10 11 53 8 53 -4z
m110 1 c0 -5 -4 -10 -10 -10 -5 0 -10 5 -10 10 0 6 5 10 10 10 6 0 10 -4 10
-10z m100 -30 c0 -5 -7 -10 -16 -10 -12 0 -15 -7 -12 -25 3 -13 1 -22 -3 -19
-15 9 -10 43 9 53 22 13 22 13 22 1z m-150 -22 c0 -19 -2 -20 -10 -8 -13 19
-13 30 0 30 6 0 10 -10 10 -22z m-150 -2 c0 -3 -4 -8 -10 -11 -5 -3 -10 -1
-10 4 0 6 5 11 10 11 6 0 10 -2 10 -4z m365 -26 c15 -17 16 -23 5 -33 -10 -10
-12 -9 -7 5 4 11 -2 23 -16 33 -12 8 -17 15 -11 15 6 0 19 -9 29 -20z m-395
-10 c0 -5 -5 -10 -11 -10 -5 0 -7 5 -4 10 3 6 8 10 11 10 2 0 4 -4 4 -10z m55
-2 c-11 -6 -23 -16 -27 -22 -4 -6 -10 -7 -14 -3 -9 9 25 36 46 36 10 0 9 -3
-5 -11z m51 -13 c10 -26 -1 -35 -13 -10 -6 14 -7 25 -2 25 5 0 12 -7 15 -15z
m240 -12 c-7 -7 -26 7 -26 19 0 6 6 6 15 -2 9 -7 13 -15 11 -17z m-393 -44
c-3 -12 -9 -17 -15 -11 -10 10 0 44 12 37 5 -3 6 -14 3 -26z m262 21 c3 -5 1
-10 -4 -10 -6 0 -11 5 -11 10 0 6 2 10 4 10 3 0 8 -4 11 -10z m245 -15 c-7 -9
-15 -13 -17 -11 -7 7 7 26 19 26 6 0 6 -6 -2 -15z m54 -1 c3 -8 2 -12 -4 -9
-6 3 -10 10 -10 16 0 14 7 11 14 -7z m-424 -4 c-19 -13 -30 -13 -30 0 0 6 10
10 23 10 18 0 19 -2 7 -10z m-95 -18 c-3 -3 -11 0 -18 7 -9 10 -8 11 6 5 10
-3 15 -9 12 -12z m564 0 c6 -12 5 -23 -4 -35 -18 -24 -59 -19 -63 8 -2 18 -2
18 8 3 6 -10 18 -18 26 -18 20 0 29 27 14 45 -8 10 -9 15 -2 15 6 0 16 -8 21
-18z m-244 -3 c11 -17 -1 -21 -15 -4 -8 9 -8 15 -2 15 6 0 14 -5 17 -11z m162
-5 c-3 -3 -12 -4 -19 -1 -8 3 -5 6 6 6 11 1 17 -2 13 -5z m-67 -14 c0 -5 -4
-10 -10 -10 -5 0 -10 5 -10 10 0 6 5 10 10 10 6 0 10 -4 10 -10z m-478 -19
c14 -16 14 -20 2 -25 -19 -7 -18 -33 4 -46 16 -11 16 -11 -1 -6 -10 3 -21 6
-23 6 -2 0 -4 7 -4 15 0 8 -9 15 -20 15 -23 0 -35 22 -26 45 8 21 48 19 68 -4z
m108 9 c0 -5 -2 -10 -4 -10 -3 0 -8 5 -11 10 -3 6 -1 10 4 10 6 0 11 -4 11
-10z m380 -20 c0 -5 -4 -10 -10 -10 -5 0 -10 5 -10 10 0 6 5 10 10 10 6 0 10
-4 10 -10z m-290 -14 c0 -15 -24 -29 -33 -19 -7 6 14 32 26 33 4 0 7 -6 7 -14z
m-161 -40 c-9 -8 -10 -7 -5 7 3 10 7 24 7 30 1 7 3 4 6 -7 3 -10 -1 -23 -8
-30z m521 24 c14 -11 21 -20 17 -20 -5 0 -20 9 -34 20 -14 11 -22 20 -17 20 5
0 20 -9 34 -20z m-655 -10 c3 -5 2 -10 -4 -10 -5 0 -13 5 -16 10 -3 6 -2 10 4
10 5 0 13 -4 16 -10z m336 -17 c13 -16 12 -17 -3 -4 -17 13 -22 21 -14 21 2 0
10 -8 17 -17z m473 8 c3 -4 -6 -6 -19 -3 -14 2 -25 6 -25 8 0 8 39 4 44 -5z
m-854 -21 c0 -5 -5 -10 -11 -10 -5 0 -7 5 -4 10 3 6 8 10 11 10 2 0 4 -4 4
-10z m270 0 c0 -5 -2 -10 -4 -10 -3 0 -8 5 -11 10 -3 6 -1 10 4 10 6 0 11 -4
11 -10z m380 -5 c10 -12 10 -18 0 -30 -14 -16 -50 -21 -50 -6 0 5 9 7 20 4 15
-4 20 0 20 15 0 11 -6 23 -12 25 -8 4 -9 6 -2 6 6 1 17 -6 24 -14z m100 -6
c-7 -11 -9 -32 -5 -46 4 -16 2 -22 -5 -18 -18 11 -4 85 16 85 2 0 0 -9 -6 -21z
m-343 -21 c-3 -8 -6 -5 -6 6 -1 11 2 17 5 13 3 -3 4 -12 1 -19z m-307 -39 c0
-17 -9 -9 -24 24 l-16 32 20 -24 c11 -13 20 -27 20 -32z m265 41 c3 -5 1 -10
-4 -10 -6 0 -11 5 -11 10 0 6 2 10 4 10 3 0 8 -4 11 -10z m555 -25 c0 -5 -5
-3 -10 5 -5 8 -10 20 -10 25 0 6 5 3 10 -5 5 -8 10 -19 10 -25z m-680 15 c0
-5 -4 -10 -10 -10 -5 0 -10 5 -10 10 0 6 5 10 10 10 6 0 10 -4 10 -10z m51
-30 c5 0 9 -5 9 -11 0 -8 -5 -8 -15 1 -8 7 -14 20 -14 29 1 13 2 13 6 -1 2
-10 9 -18 14 -18z m264 0 c10 -11 16 -20 13 -20 -3 0 -13 9 -23 20 -10 11 -16
20 -13 20 3 0 13 -9 23 -20z m-615 0 c0 -5 -2 -10 -4 -10 -3 0 -8 5 -11 10 -3
6 -1 10 4 10 6 0 11 -4 11 -10z m251 -19 c-31 -20 39 -81 77 -66 12 4 12 9 -2
30 -19 28 -10 34 10 8 24 -31 17 -53 -15 -53 -31 0 -91 42 -91 64 0 15 22 38
29 30 3 -3 -1 -9 -8 -13z m49 3 c0 -2 -7 -4 -15 -4 -8 0 -15 4 -15 10 0 5 7 7
15 4 8 -4 15 -8 15 -10z m-265 -12 c-3 -3 -11 0 -18 7 -9 10 -8 11 6 5 10 -3
15 -9 12 -12z m105 4 c0 -2 -7 -7 -16 -10 -8 -3 -12 -2 -9 4 6 10 25 14 25 6z
m520 0 c0 -3 -4 -8 -10 -11 -5 -3 -10 -1 -10 4 0 6 5 11 10 11 6 0 10 -2 10
-4z m-265 -16 c3 -5 1 -10 -4 -10 -6 0 -11 5 -11 10 0 6 2 10 4 10 3 0 8 -4
11 -10z m-175 -41 c0 -6 -9 -8 -20 -4 -37 12 -24 -28 20 -58 35 -24 50 -21 50
11 0 20 3 23 9 13 12 -19 -4 -51 -24 -51 -20 0 -83 41 -90 59 -3 7 0 20 6 27
14 16 49 19 49 3z m225 1 c3 -5 1 -10 -4 -10 -6 0 -11 5 -11 10 0 6 2 10 4 10
3 0 8 -4 11 -10z m-20 -56 l17 -27 -25 19 c-14 11 -23 22 -20 27 7 11 9 9 28
-19z m105 -12 c-7 -3 -19 3 -28 13 -16 15 -15 16 12 4 15 -7 23 -15 16 -17z
m-155 8 c3 -5 1 -10 -4 -10 -6 0 -11 5 -11 10 0 6 2 10 4 10 3 0 8 -4 11 -10z
m-225 -9 c0 -5 -9 -7 -20 -4 -11 3 -20 7 -20 9 0 2 9 4 20 4 11 0 20 -4 20 -9z
m-1 -66 c19 -14 30 -25 25 -25 -18 0 -74 53 -73 69 0 14 1 14 7 -1 4 -9 22
-29 41 -43z m276 35 c3 -5 1 -10 -4 -10 -6 0 -11 5 -11 10 0 6 2 10 4 10 3 0
8 -4 11 -10z m-205 -25 c0 -8 -4 -17 -10 -20 -6 -4 -10 5 -10 20 0 15 4 24 10
20 6 -3 10 -12 10 -20z m110 15 c0 -5 -5 -10 -11 -10 -5 0 -7 5 -4 10 3 6 8
10 11 10 2 0 4 -4 4 -10z m170 0 c0 -5 -4 -10 -10 -10 -5 0 -10 5 -10 10 0 6
5 10 10 10 6 0 10 -4 10 -10z m-30 -30 c0 -5 -2 -10 -4 -10 -3 0 -8 5 -11 10
-3 6 -1 10 4 10 6 0 11 -4 11 -10z m90 0 c0 -5 -4 -10 -10 -10 -5 0 -10 5 -10
10 0 6 5 10 10 10 6 0 10 -4 10 -10z m-170 -15 c11 -13 10 -14 -4 -9 -9 3 -16
10 -16 15 0 13 6 11 20 -6z m-73 -1 c-3 -3 -12 -4 -19 -1 -8 3 -5 6 6 6 11 1
17 -2 13 -5z m208 -24 c-10 -11 -20 -18 -23 -15 -7 6 18 35 31 35 5 0 2 -9 -8
-20z m-95 0 c0 -5 -4 -10 -10 -10 -5 0 -10 5 -10 10 0 6 5 10 10 10 6 0 10 -4
10 -10z m-40 -24 c0 -15 -26 -46 -38 -46 -4 0 -14 5 -22 10 -12 8 -9 10 13 10
20 0 27 5 27 20 0 11 5 20 10 20 6 0 10 -6 10 -14z m61 -57 c-5 -13 -10 -19
-10 -12 -1 15 10 45 15 40 3 -2 0 -15 -5 -28z m116 -1 c-3 -8 -6 -5 -6 6 -1
11 2 17 5 13 3 -3 4 -12 1 -19z m83 -8 c0 -5 -4 -10 -10 -10 -5 0 -10 5 -10
10 0 6 5 10 10 10 6 0 10 -4 10 -10z m-60 -45 c0 -8 -4 -15 -10 -15 -5 0 -7 7
-4 15 4 8 8 15 10 15 2 0 4 -7 4 -15z m-40 -9 c0 -3 -4 -8 -10 -11 -5 -3 -10
-1 -10 4 0 6 5 11 10 11 6 0 10 -2 10 -4z"/>
<path d="M2195 3210 c-8 -14 3 -30 21 -30 8 0 14 9 14 20 0 21 -24 28 -35 10z"/>
<path d="M1866 3577 c3 -10 9 -15 12 -12 3 3 0 11 -7 18 -10 9 -11 8 -5 -6z"/>
<path d="M1279 3543 l-24 -28 28 24 c25 23 32 31 24 31 -2 0 -14 -12 -28 -27z"/>
<path d="M1189 3453 l-24 -28 28 24 c25 23 32 31 24 31 -2 0 -14 -12 -28 -27z"/>
<path d="M1060 3308 c0 -15 14 -62 31 -105 36 -92 38 -95 49 -88 4 3 -1 24
-12 48 -12 23 -31 71 -44 107 -17 46 -23 57 -24 38z"/>
<path d="M1140 3026 c0 -2 8 -10 18 -17 15 -13 16 -12 3 4 -13 16 -21 21 -21
13z"/>
<path d="M1330 2876 c0 -2 8 -10 18 -17 15 -13 16 -12 3 4 -13 16 -21 21 -21
13z"/>
<path d="M3160 2557 c0 -3 12 -12 26 -22 15 -9 23 -12 20 -6 -7 11 -46 35 -46
28z"/>
<path d="M3487 2527 c12 -6 39 -22 60 -35 32 -19 34 -19 13 -2 -51 42 -64 50
-80 50 -10 0 -8 -4 7 -13z"/>
<path d="M3630 2436 c0 -2 8 -10 18 -17 15 -13 16 -12 3 4 -13 16 -21 21 -21
13z"/>
<path d="M3295 2290 c3 -5 11 -10 16 -10 6 0 7 5 4 10 -3 6 -11 10 -16 10 -6
0 -7 -4 -4 -10z"/>
<path d="M2804 2231 c4 -5 21 -20 39 -32 l32 -23 -20 23 c-22 25 -62 51 -51
32z"/>
<path d="M3074 2221 c20 -22 26 -25 26 -13 0 4 -10 13 -22 21 -23 14 -23 14
-4 -8z"/>
<path d="M2930 2136 c0 -2 8 -10 18 -17 15 -13 16 -12 3 4 -13 16 -21 21 -21
13z"/>
<path d="M2995 2080 c9 -15 45 -32 45 -22 0 5 -12 14 -26 20 -14 7 -23 8 -19
2z"/>
<path d="M4486 1874 c-11 -28 -6 -39 9 -20 8 11 15 23 15 28 0 14 -18 9 -24
-8z"/>
<path d="M3713 1688 c-24 -31 -27 -42 -10 -35 12 4 17 1 17 -11 0 -13 3 -12
16 7 14 20 15 25 2 37 -12 12 -17 13 -25 2z"/>
<path d="M3757 1648 c-10 -36 -8 -41 9 -24 8 9 20 16 25 16 12 0 12 -17 -1
-25 -5 -3 -10 -11 -10 -16 0 -6 5 -7 10 -4 6 3 10 -1 10 -9 0 -9 4 -16 9 -16
15 0 26 23 14 27 -6 2 -9 12 -6 23 3 13 -2 20 -19 25 -12 4 -26 12 -29 17 -3
5 -9 -1 -12 -14z"/>
<path d="M4276 1628 l-18 -30 26 17 c27 18 32 30 18 39 -5 3 -16 -9 -26 -26z"/>
<path d="M3840 1585 c-15 -18 -6 -45 15 -45 8 0 15 -5 15 -11 0 -5 5 -7 10 -4
6 3 13 -1 16 -9 9 -22 24 -9 24 20 0 24 -14 32 -25 14 -11 -18 -21 -10 -20 17
0 31 -17 40 -35 18z m30 -13 c0 -13 -12 -22 -22 -16 -10 6 -1 24 13 24 5 0 9
-4 9 -8z"/>
<path d="M3930 1514 c-11 -12 -10 -18 5 -32 16 -14 17 -14 7 -1 -10 13 -9 19
2 28 19 16 45 -14 28 -31 -7 -7 -12 -16 -12 -22 0 -5 3 -6 7 -3 3 4 12 -1 20
-11 13 -16 14 -15 10 6 -4 16 0 22 11 23 14 0 13 2 -3 9 -11 5 -16 9 -11 9 8
1 -37 41 -47 41 -2 0 -10 -7 -17 -16z"/>
<path d="M4071 1406 c-8 -9 -11 -19 -7 -23 9 -9 29 13 24 27 -2 8 -8 7 -17 -4z"/>
</g>
</svg>
