<?xml version="1.0" standalone="no"?>
<!DOCTYPE svg PUBLIC "-//W3C//DTD SVG 20010904//EN"
 "http://www.w3.org/TR/2001/REC-SVG-20010904/DTD/svg10.dtd">
<svg version="1.0" xmlns="http://www.w3.org/2000/svg"
 width="1000.000000pt" height="1000.000000pt" viewBox="0 0 1000.000000 1000.000000"
 preserveAspectRatio="xMidYMid meet">

<g transform="translate(0.000000,1000.000000) scale(0.100000,-0.100000)"
fill="#000000" stroke="none">
<path d="M3803 8280 c-67 -10 -131 -24 -143 -30 -11 -6 -55 -20 -97 -30 -42
-11 -81 -24 -87 -29 -6 -4 -23 -11 -38 -15 -29 -7 -202 -89 -280 -134 -68 -39
-335 -226 -362 -254 -10 -10 -22 -18 -27 -18 -5 0 -21 -13 -36 -28 -28 -28
-117 -108 -164 -147 -27 -23 -97 -100 -149 -165 -19 -24 -49 -60 -66 -79 -17
-20 -45 -56 -62 -81 -18 -25 -48 -65 -67 -90 -18 -25 -34 -50 -34 -56 -1 -6
-11 -24 -23 -40 -26 -32 -128 -233 -128 -250 0 -6 -8 -22 -19 -35 -10 -13 -21
-44 -24 -69 -2 -25 -19 -90 -36 -145 -42 -134 -54 -326 -26 -410 11 -30 21
-52 25 -50 3 2 7 -9 8 -25 1 -16 6 -39 11 -52 9 -23 9 -23 16 5 8 31 35 37 35
7 0 -11 -7 -20 -15 -20 -8 0 -15 -5 -15 -11 0 -6 6 -9 14 -6 8 3 20 -1 27 -9
20 -25 36 2 42 72 4 37 10 71 15 78 5 6 14 43 21 82 7 39 18 83 26 97 7 14 16
41 20 59 8 34 26 72 137 288 59 115 98 184 134 235 121 169 165 223 246 305
40 41 85 91 98 110 39 56 171 183 236 227 32 23 70 51 84 63 14 12 41 33 62
46 20 13 39 27 42 33 3 5 57 35 119 66 61 31 119 63 127 70 19 15 140 75 153
75 6 0 33 11 61 24 67 31 171 66 196 66 12 0 31 6 43 14 12 8 49 17 82 21 33
3 102 13 153 22 51 8 118 13 150 11 113 -10 156 25 102 82 -15 16 -34 30 -42
30 -8 0 -28 13 -44 30 -19 18 -60 39 -109 55 -95 31 -210 32 -392 5z"/>
<path d="M2144 8069 c-3 -6 -1 -16 5 -22 8 -8 11 -5 11 11 0 24 -5 28 -16 11z"/>
<path d="M2270 7925 c0 -9 5 -15 11 -13 6 2 11 8 11 13 0 5 -5 11 -11 13 -6 2
-11 -4 -11 -13z"/>
<path d="M4605 7265 c-16 -10 -43 -19 -60 -21 -16 -2 -46 -6 -66 -9 -20 -3
-56 -14 -80 -25 -24 -11 -56 -20 -70 -20 -14 0 -36 -9 -49 -20 -13 -11 -31
-20 -40 -20 -10 0 -28 -9 -41 -19 -14 -10 -40 -26 -59 -35 -48 -23 -77 -40
-97 -59 -10 -8 -31 -20 -46 -26 -23 -9 -27 -15 -22 -34 5 -16 4 -18 -3 -8 -7
9 -16 11 -28 6 -11 -4 -28 -10 -39 -12 -11 -2 -21 -8 -23 -13 -2 -5 -26 -25
-53 -45 -32 -23 -49 -42 -49 -56 0 -14 -5 -19 -15 -16 -8 4 -17 2 -20 -2 -2
-5 -25 -18 -50 -30 -46 -21 -53 -34 -34 -61 8 -11 12 -12 16 -2 2 6 14 12 24
12 11 0 28 4 38 10 13 6 30 3 63 -15 43 -23 45 -23 60 -5 23 26 92 23 96 -5 6
-38 12 -46 24 -38 7 4 15 8 18 9 27 5 61 27 57 37 -2 6 -22 15 -45 18 -53 7
-59 13 -33 36 12 9 21 23 21 30 0 7 7 13 16 13 9 0 27 11 39 25 20 20 29 23
61 18 35 -6 64 -23 64 -37 0 -3 -15 -6 -34 -6 -48 0 -69 -9 -56 -25 8 -9 2
-14 -22 -19 l-33 -7 25 -13 c28 -16 64 -6 90 24 12 14 30 20 59 20 22 0 41 4
41 10 0 5 15 17 33 26 17 9 34 20 37 23 5 6 54 28 125 55 17 6 44 21 60 32 17
12 62 29 100 38 91 22 148 38 160 46 17 12 86 21 233 30 133 8 176 16 145 27
-7 3 -13 11 -13 19 0 9 -4 12 -10 9 -5 -3 -15 5 -22 19 -6 14 -19 26 -29 26
-10 0 -21 5 -24 11 -5 7 -14 3 -27 -11 -22 -24 -40 -22 -44 3 -2 12 5 17 23
17 35 0 27 29 -15 53 -48 28 -332 37 -377 12z m355 -51 c0 -11 -5 -14 -16 -10
-9 3 -21 6 -27 7 -7 0 -3 4 8 9 29 13 35 12 35 -6z m-951 -307 c-8 -8 -22 -11
-33 -7 -17 6 -17 8 5 33 23 25 24 25 33 7 6 -13 4 -23 -5 -33z m-155 -107 c-6
-5 -24 21 -24 34 0 6 6 1 14 -10 8 -10 12 -21 10 -24z"/>
<path d="M3570 6701 c0 -5 -25 -25 -55 -45 -30 -20 -75 -62 -101 -94 -25 -31
-53 -61 -60 -65 -8 -4 -26 -29 -39 -55 -14 -26 -45 -72 -70 -102 -24 -30 -44
-61 -45 -67 0 -7 -4 -13 -9 -13 -5 0 -12 -9 -16 -20 -3 -10 -23 -40 -44 -65
-21 -26 -47 -64 -57 -86 -11 -21 -22 -39 -26 -39 -3 0 -9 -13 -13 -30 -3 -16
-14 -39 -24 -52 -10 -13 -23 -43 -29 -68 -5 -25 -16 -60 -23 -78 -12 -30 -12
-33 9 -48 12 -8 22 -22 22 -29 0 -11 8 -13 30 -8 44 8 76 -25 85 -86 9 -66 18
-77 36 -44 8 16 20 32 26 36 7 4 18 28 24 52 6 24 17 46 25 49 8 3 14 18 14
35 0 19 8 34 24 44 13 9 27 28 30 43 4 15 16 39 27 52 10 14 19 30 19 36 0 6
8 19 18 28 9 8 31 39 47 67 17 28 33 51 36 51 4 0 23 26 42 58 20 31 46 63 57
70 11 7 20 16 20 21 0 5 33 42 74 83 40 40 83 91 94 113 24 48 126 145 152
145 19 0 45 54 34 71 -7 12 -38 11 -50 -1 -7 -7 -26 -2 -59 15 -51 27 -101 27
-112 -1 -3 -8 -9 -12 -13 -9 -4 3 -10 -4 -13 -14 -4 -18 10 -30 56 -45 19 -6
21 -14 7 -36 -8 -12 -15 -12 -57 3 -26 9 -57 15 -68 14 -25 -3 -33 44 -11 63
9 7 16 9 16 6 0 -4 10 -1 22 5 l22 12 -23 18 c-25 20 -51 25 -51 10z"/>
<path d="M7022 4920 c-60 -3 -96 -10 -101 -18 -4 -7 -39 -16 -79 -20 -42 -5
-78 -15 -89 -24 -10 -9 -31 -22 -47 -28 -16 -6 -26 -13 -23 -16 10 -10 -20
-34 -43 -34 -20 0 -20 -1 -4 -17 15 -16 17 -16 29 0 7 9 24 17 39 17 15 0 35
4 45 10 13 6 24 5 37 -5 18 -13 18 -14 -8 -24 -48 -18 -31 -56 27 -63 21 -2
34 -11 43 -30 11 -23 20 -28 48 -28 18 0 34 4 34 9 0 11 78 31 119 31 16 0 45
9 63 19 18 11 62 22 98 26 41 5 76 15 95 29 26 18 41 20 111 18 51 -2 84 1 89
7 3 6 1 11 -4 11 -6 0 -11 6 -11 14 0 8 -7 16 -15 20 -8 3 -20 17 -25 31 -7
19 -17 25 -39 25 -18 0 -34 7 -39 17 -14 23 -119 30 -147 10 -17 -13 -25 -13
-65 2 -35 12 -66 15 -138 11z m332 -85 c52 -9 33 -27 -25 -23 -33 2 -45 7 -47
21 -3 14 1 18 15 14 10 -3 35 -8 57 -12z m-396 -97 c54 -4 36 -18 -23 -18 -51
0 -65 7 -48 23 4 4 14 5 22 2 9 -2 31 -6 49 -7z"/>
<path d="M5719 4217 c-63 -56 -117 -138 -121 -182 l-3 -40 43 3 c39 2 42 0 42
-22 0 -13 -5 -26 -12 -28 -20 -7 0 -56 24 -60 15 -2 29 -16 41 -41 l17 -37 28
17 c115 73 200 152 202 189 0 10 -163 182 -205 216 -19 16 -22 15 -56 -15z"/>
<path d="M5502 3917 c-12 -13 -22 -29 -22 -36 0 -8 -11 -24 -25 -37 -29 -26
-35 -84 -10 -84 8 0 15 -4 15 -9 0 -5 9 -11 20 -14 14 -3 20 -14 20 -31 0 -14
5 -26 10 -26 6 0 10 -6 10 -14 0 -8 12 -33 27 -55 24 -37 28 -39 42 -25 9 8
24 20 33 27 10 7 19 24 20 40 1 15 6 27 10 27 4 0 8 11 8 24 0 13 6 29 14 35
20 17 9 50 -15 44 -15 -4 -23 2 -32 26 -6 17 -15 31 -19 31 -4 0 -8 7 -8 15 0
8 -4 15 -9 15 -5 0 -18 16 -30 35 -24 41 -30 43 -59 12z m138 -172 c0 -14 -4
-25 -8 -25 -7 0 -8 31 -3 48 4 11 11 -3 11 -23z"/>
<path d="M5344 3653 c-8 -42 -28 -62 -61 -63 -16 0 -24 -8 -28 -27 -4 -16 -10
-35 -15 -43 -31 -50 -41 -74 -42 -106 -1 -33 6 -44 70 -106 40 -39 72 -74 72
-79 0 -11 41 -39 57 -39 7 0 23 24 36 53 68 147 70 159 32 199 -14 15 -39 53
-56 83 -25 45 -30 64 -26 98 8 68 -27 94 -39 30z"/>
<path d="M7137 3233 c-21 -2 -54 -15 -74 -29 -20 -13 -40 -24 -45 -24 -5 0
-36 -20 -67 -45 -48 -36 -65 -58 -95 -121 -33 -70 -47 -127 -28 -122 4 1 17
-4 30 -11 18 -9 22 -19 19 -39 -2 -15 -2 -21 1 -13 3 9 15 12 42 8 33 -4 39
-2 44 17 6 21 76 76 98 76 6 0 8 3 5 7 -12 11 35 53 60 53 20 0 75 -48 95 -85
4 -7 18 -10 33 -7 33 6 33 39 0 54 -20 9 -25 19 -25 45 0 34 18 63 39 63 6 0
11 -5 11 -10 0 -18 49 24 50 41 0 9 -11 28 -25 43 -14 15 -25 31 -25 37 0 19
-3 25 -27 47 -24 22 -35 23 -116 15z m-121 -209 c-5 -13 -10 -14 -18 -6 -6 6
-8 18 -4 28 5 13 10 14 18 6 6 -6 8 -18 4 -28z m-56 -73 c0 -4 -3 -11 -7 -14
-8 -9 -34 13 -28 24 6 9 35 1 35 -10z"/>
<path d="M7186 2891 c-3 -5 1 -11 9 -14 9 -4 12 -1 8 9 -6 16 -10 17 -17 5z"/>
<path d="M7441 2504 c0 -11 3 -14 6 -6 3 7 2 16 -1 19 -3 4 -6 -2 -5 -13z"/>
<path d="M7565 2380 c-7 -11 2 -30 15 -30 4 0 10 6 13 14 6 16 -19 30 -28 16z"/>
<path d="M7606 2325 c4 -8 10 -15 15 -15 5 0 9 7 9 15 0 8 -7 15 -15 15 -9 0
-12 -6 -9 -15z"/>
<path d="M7650 2286 c0 -9 7 -16 16 -16 9 0 14 5 12 12 -6 18 -28 21 -28 4z"/>
</g>
</svg>
